<?xml version="1.0" encoding="us-ascii" standalone="no"?><svg xmlns="http://www.w3.org/2000/svg" xmlns:xlink="http://www.w3.org/1999/xlink" contentStyleType="text/css" height="801px" preserveAspectRatio="none" style="width:695px;height:801px;background:#FFFFFF;" version="1.1" viewBox="0 0 695 801" width="695px" zoomAndPan="magnify"><defs/><g><!--class System--><g id="elem_System"><rect codeLine="3" fill="#F1F1F1" height="213.9554" id="System" rx="3.5" ry="3.5" style="stroke:#181818;stroke-width:0.5;" width="149" x="93.5" y="7"/><text fill="#000000" font-family="sans-serif" font-size="12" font-style="italic" lengthAdjust="spacing" textLength="59" x="138.5" y="24.8281">&#171;interface&#187;</text><text fill="#000000" font-family="sans-serif" font-size="14" font-style="italic" lengthAdjust="spacing" textLength="44" x="146" y="43.31">System</text><line style="stroke:#181818;stroke-width:0.5;" x1="94.5" x2="241.5" y1="52.412" y2="52.412"/><text fill="#000000" font-family="sans-serif" font-size="14" lengthAdjust="spacing" textLength="87" x="113.5" y="71.378">name: String</text><polygon fill="none" points="104.5,81.5139,108.5,85.5139,104.5,89.5139,100.5,85.5139" style="stroke:#B38D22;stroke-width:1.0;"/><text fill="#000000" font-family="sans-serif" font-size="14" lengthAdjust="spacing" textLength="98" x="113.5" y="90.4459">onStart: Query</text><polygon fill="none" points="104.5,100.5818,108.5,104.5818,104.5,108.5818,100.5,104.5818" style="stroke:#B38D22;stroke-width:1.0;"/><text fill="#000000" font-family="sans-serif" font-size="14" lengthAdjust="spacing" textLength="101" x="113.5" y="109.5138">process: Query</text><polygon fill="none" points="104.5,119.6497,108.5,123.6497,104.5,127.6497,100.5,123.6497" style="stroke:#B38D22;stroke-width:1.0;"/><text fill="#000000" font-family="sans-serif" font-size="14" lengthAdjust="spacing" textLength="106" x="113.5" y="128.5817">onPause: Query</text><rect fill="none" height="6" style="stroke:#C82930;stroke-width:1.0;" width="6" x="101.5" y="140.7177"/><text fill="#000000" font-family="sans-serif" font-size="14" lengthAdjust="spacing" textLength="123" x="113.5" y="147.6496">state: SystemState</text><line style="stroke:#181818;stroke-width:0.5;" x1="94.5" x2="241.5" y1="155.7516" y2="155.7516"/><polygon fill="#4177AF" points="104.5,166.7856,100.5,172.7856,108.5,172.7856" style="stroke:#1963A0;stroke-width:1.0;"/><text fill="#000000" font-family="sans-serif" font-size="14" lengthAdjust="spacing" textLength="56" x="113.5" y="174.7176">update()</text><polygon fill="#4177AF" points="104.5,185.8535,100.5,191.8535,108.5,191.8535" style="stroke:#1963A0;stroke-width:1.0;"/><text fill="#000000" font-family="sans-serif" font-size="14" lengthAdjust="spacing" textLength="49" x="113.5" y="193.7855">pause()</text><polygon fill="#4177AF" points="104.5,204.9214,100.5,210.9214,108.5,210.9214" style="stroke:#1963A0;stroke-width:1.0;"/><text fill="#000000" font-family="sans-serif" font-size="14" lengthAdjust="spacing" textLength="59" x="113.5" y="212.8534">resume()</text></g><!--class Query--><g id="elem_Query"><rect codeLine="14" fill="#F1F1F1" height="72.4799" id="Query" rx="3.5" ry="3.5" style="stroke:#181818;stroke-width:0.5;" width="61" x="292.5" y="77.74"/><text fill="#000000" font-family="sans-serif" font-size="12" font-style="italic" lengthAdjust="spacing" textLength="59" x="293.5" y="95.5681">&#171;interface&#187;</text><text fill="#000000" font-family="sans-serif" font-size="14" font-style="italic" lengthAdjust="spacing" textLength="38" x="304" y="114.05">Query</text><line style="stroke:#181818;stroke-width:0.5;" x1="293.5" x2="352.5" y1="123.152" y2="123.152"/><text fill="#000000" font-family="sans-serif" font-size="14" lengthAdjust="spacing" textLength="45" x="298.5" y="142.118">apply()</text></g><!--class RegularQuery--><g id="elem_RegularQuery"><rect codeLine="18" fill="#F1F1F1" height="45.412" id="RegularQuery" rx="3.5" ry="3.5" style="stroke:#181818;stroke-width:0.5;" width="93" x="276.5" y="281.96"/><text fill="#000000" font-family="sans-serif" font-size="12" font-style="italic" lengthAdjust="spacing" textLength="59" x="293.5" y="299.7881">&#171;interface&#187;</text><text fill="#000000" font-family="sans-serif" font-size="14" font-style="italic" lengthAdjust="spacing" textLength="87" x="279.5" y="318.27">RegularQuery</text></g><!--class Routine--><g id="elem_Routine"><rect codeLine="19" fill="#F1F1F1" height="45.412" id="Routine" rx="3.5" ry="3.5" style="stroke:#181818;stroke-width:0.5;" width="61" x="404.5" y="281.96"/><text fill="#000000" font-family="sans-serif" font-size="12" font-style="italic" lengthAdjust="spacing" textLength="59" x="405.5" y="299.7881">&#171;interface&#187;</text><text fill="#000000" font-family="sans-serif" font-size="14" font-style="italic" lengthAdjust="spacing" textLength="48" x="411" y="318.27">Routine</text></g><!--class QueryBuilder--><g id="elem_QueryBuilder"><rect codeLine="21" fill="#F1F1F1" height="167.8195" id="QueryBuilder" rx="3.5" ry="3.5" style="stroke:#181818;stroke-width:0.5;" width="497" x="191.5" y="406.37"/><text fill="#000000" font-family="sans-serif" font-size="12" font-style="italic" lengthAdjust="spacing" textLength="59" x="410.5" y="424.1981">&#171;interface&#187;</text><text fill="#000000" font-family="sans-serif" font-size="14" font-style="italic" lengthAdjust="spacing" textLength="83" x="398.5" y="442.68">QueryBuilder</text><line style="stroke:#181818;stroke-width:0.5;" x1="192.5" x2="687.5" y1="451.782" y2="451.782"/><text fill="#000000" font-family="sans-serif" font-size="14" lengthAdjust="spacing" textLength="296" x="197.5" y="470.748">none(t: List[ComponentType]): QueryBuilder</text><text fill="#000000" font-family="sans-serif" font-size="14" lengthAdjust="spacing" textLength="286" x="197.5" y="489.8159">any(t: List[ComponentType]): QueryBuilder</text><text fill="#000000" font-family="sans-serif" font-size="14" lengthAdjust="spacing" textLength="281" x="197.5" y="508.8838">all(f: Function[Entity, Unit]): RegularQuery</text><text fill="#000000" font-family="sans-serif" font-size="14" lengthAdjust="spacing" textLength="411" x="197.5" y="527.9517">all[C &lt; Component](f: Function[Entity, C, Unit]): RegularQuery</text><text fill="#000000" font-family="sans-serif" font-size="14" lengthAdjust="spacing" textLength="485" x="197.5" y="547.0196">all[(C1, C2) &lt; Component](f: Function[Entity, C1, C2, Unit]): RegularQuery</text><text fill="#000000" font-family="sans-serif" font-size="14" lengthAdjust="spacing" textLength="36" x="197.5" y="566.0876">all...()</text></g><!--class World--><g id="elem_World"><rect codeLine="30" fill="#F1F1F1" height="118.6158" id="World" rx="3.5" ry="3.5" style="stroke:#181818;stroke-width:0.5;" width="304" x="9" y="676.19"/><text fill="#000000" font-family="sans-serif" font-size="12" font-style="italic" lengthAdjust="spacing" textLength="59" x="131.5" y="694.0181">&#171;interface&#187;</text><text fill="#000000" font-family="sans-serif" font-size="14" font-style="italic" lengthAdjust="spacing" textLength="38" x="142" y="712.5">World</text><line style="stroke:#181818;stroke-width:0.5;" x1="10" x2="312" y1="721.602" y2="721.602"/><polygon fill="none" points="20,732.636,16,738.636,24,738.636" style="stroke:#1963A0;stroke-width:1.0;"/><text fill="#000000" font-family="sans-serif" font-size="14" lengthAdjust="spacing" textLength="158" x="29" y="740.568">am: ArchetypeManager</text><line style="stroke:#181818;stroke-width:0.5;" x1="10" x2="312" y1="748.6699" y2="748.6699"/><text fill="#000000" font-family="sans-serif" font-size="14" lengthAdjust="spacing" textLength="292" x="15" y="767.6359">system(name: String, priority: Int, q: Query)</text><text fill="#000000" font-family="sans-serif" font-size="14" lengthAdjust="spacing" textLength="118" x="15" y="786.7038">system(s: System)</text></g><!--class ArchetypeManager--><g id="elem_ArchetypeManager"><rect codeLine="36" fill="#F1F1F1" height="45.412" id="ArchetypeManager" rx="3.5" ry="3.5" style="stroke:#181818;stroke-width:0.5;" width="125" x="377.5" y="702.98"/><text fill="#000000" font-family="sans-serif" font-size="12" font-style="italic" lengthAdjust="spacing" textLength="59" x="410.5" y="720.8081">&#171;interface&#187;</text><text fill="#000000" font-family="sans-serif" font-size="14" font-style="italic" lengthAdjust="spacing" textLength="119" x="380.5" y="739.29">ArchetypeManager</text></g><!--link System to Query--><g id="link_System_Query"><path codeLine="38" d="M242.78,113.98 C259.28,113.98 269.78,113.98 286.29,113.98 " fill="none" id="System-to-Query" style="stroke:#454645;stroke-width:1.0;"/><polygon fill="#454645" points="292.29,113.98,283.29,109.98,287.29,113.98,283.29,117.98,292.29,113.98" style="stroke:#454645;stroke-width:1.0;"/></g><!--reverse link Query to RegularQuery--><g id="link_Query_RegularQuery"><path codeLine="39" d="M323,168.47 C323,207.01 323,249.36 323,281.61 " fill="none" id="Query-backto-RegularQuery" style="stroke:#454645;stroke-width:1.0;"/><polygon fill="none" points="323,150.47,317,168.47,329,168.47,323,150.47" style="stroke:#454645;stroke-width:1.0;"/></g><!--reverse link Query to Routine--><g id="link_Query_Routine"><path codeLine="40" d="M353.2558,165.9497 C376.1258,204.4897 402.77,249.36 421.91,281.61 " fill="none" id="Query-backto-Routine" style="stroke:#454645;stroke-width:1.0;"/><polygon fill="none" points="344.07,150.47,348.0959,169.0116,358.4157,162.8878,344.07,150.47" style="stroke:#454645;stroke-width:1.0;"/></g><!--reverse link RegularQuery to QueryBuilder--><g id="link_RegularQuery_QueryBuilder"><path codeLine="41" d="M340.3341,332.8702 C352.8541,352.5202 368.73,377.44 387.09,406.25 " fill="none" id="RegularQuery-backto-QueryBuilder" style="stroke:#454645;stroke-width:1.0;"/><polygon fill="#454645" points="337.11,327.81,338.5727,337.5496,339.7967,332.0268,345.3196,333.2509,337.11,327.81" style="stroke:#454645;stroke-width:1.0;"/><text fill="#000000" font-family="sans-serif" font-size="13" lengthAdjust="spacing" textLength="36" x="368" y="372.267">builds</text></g><!--link QueryBuilder to World--><g id="link_QueryBuilder_World"><path codeLine="42" d="M321.89,574.61 C309.53,584.29 297.35,594.26 286,604.19 C260.55,626.46 238.4275,648.687 216.6075,672.027 " fill="none" id="QueryBuilder-to-World" style="stroke:#454645;stroke-width:1.0;"/><polygon fill="#454645" points="212.51,676.41,221.5783,672.5672,215.9246,672.7575,215.7343,667.1039,212.51,676.41" style="stroke:#454645;stroke-width:1.0;"/><text fill="#000000" font-family="sans-serif" font-size="13" lengthAdjust="spacing" textLength="144" x="287" y="619.087">gets ArchetypeManager</text></g><!--link QueryBuilder to ArchetypeManager--><g id="link_QueryBuilder_ArchetypeManager"><path codeLine="43" d="M440,574.56 C440,620.25 440,667.41 440,696.62 " fill="none" id="QueryBuilder-to-ArchetypeManager" style="stroke:#454645;stroke-width:1.0;"/><polygon fill="#454645" points="440,702.62,444,693.62,440,697.62,436,693.62,440,702.62" style="stroke:#454645;stroke-width:1.0;"/><text fill="#000000" font-family="sans-serif" font-size="13" lengthAdjust="spacing" textLength="27" x="441" y="619.087">uses</text></g><!--link System to World--><g id="link_System_World"><path codeLine="44" d="M166.8,221.43 C165.31,353.17 162.9553,541.0747 161.7853,644.8347 " fill="none" id="System-to-World" style="stroke:#454645;stroke-width:1.0;"/><polygon fill="none" points="161.65,656.834,165.7174,650.8795,161.7853,644.8347,157.7179,650.7893,161.65,656.834" style="stroke:#454645;stroke-width:1.0;"/><polygon fill="#000000" points="171.0592,362.2234,168.0134,371.233,173.8908,371.3026,171.0592,362.2234" style="stroke:#000000;stroke-width:1.0;"/><text fill="#000000" font-family="sans-serif" font-size="13" lengthAdjust="spacing" textLength="145" x="180" y="372.267">calls update() every loop</text><text fill="#000000" font-family="sans-serif" font-size="13" lengthAdjust="spacing" textLength="7" x="159.4989" y="242.7778">*</text><text fill="#000000" font-family="sans-serif" font-size="13" lengthAdjust="spacing" textLength="7" x="154.267" y="664.4198">*</text></g><rect fill="#FFFFFF" height="19.706" style="stroke:#000000;stroke-width:0.5;" width="71" x="126.15" y="657.334"/><text fill="#000000" font-family="sans-serif" font-size="13" lengthAdjust="spacing" textLength="67" x="128.15" y="672.231">priority: Int</text><!--SRC=[ZLDRIyCm57xlhpZEbqxMWJw6CT2X82YeKtmOUyYwunPeBYQdW-BbjvkqkxHT6JxbvCjtBldovOpMA14sOc6veYWIYj1-y1HXMZX22QFH7XgFuIi2K5mYWobPeLP-UwxLbBWb1iyvsY8WnkeKdQiXMZtntE41IHnn2cNABjEmyUXlRfO-YliXDY6Z2YswN8RufpvXMQjZG6vCLhJ9BxZACsuxSkeadPDGs3fljxp9HRP4soMDLXXx9Hw4ezb4I-FtYbuBW_C-QoI7CLNnVswMnHyCxdALaj1gTgj8K360DoKeqEktg-Yp2OnWNtRUcJqvMI2UN7hALVyVTKhYgMB3uR3z8E_QPiiE3N-vP71jqpMIr-AHAxug9N2bK-Aw-mPWhD3Mpy3WNj40FhV2zGzyj_DOgtsxG_lDj_PFnblBRetpdIJDwzNnoZrHqsh-eE4Q1eiGkQY19hvHfGY35P8xLk28VdG31lx3kDtalOkUf-bodJLqckyxfVvf7Em-7U0cJ9nfRM0KHMknH3W8bWgRPbYXA0qL854kqBhe3m00]--></g></svg>