<?xml version="1.0" encoding="us-ascii" standalone="no"?><svg xmlns="http://www.w3.org/2000/svg" xmlns:xlink="http://www.w3.org/1999/xlink" contentStyleType="text/css" height="926px" preserveAspectRatio="none" style="width:997px;height:926px;background:#FFFFFF;" version="1.1" viewBox="0 0 997 926" width="997px" zoomAndPan="magnify"><defs/><g><!--class Updatable--><g id="elem_Updatable"><rect codeLine="4" fill="#90EE90" height="59.0679" id="Updatable" rx="3.5" ry="3.5" style="stroke:#000000;stroke-width:0.5;" width="229" x="761.5" y="7"/><ellipse cx="839.25" cy="23" fill="#B4A7E5" rx="11" ry="11" style="stroke:#181818;stroke-width:1.0;"/><path d="M835.2813,29.5 L835.2813,27.7969 L837.6406,27.5313 L837.6406,19.3281 L835.2813,19.0625 L835.2813,17.3594 L842.4219,17.3594 L842.4219,19.0625 L840,19.3281 L840,27.5313 L842.4219,27.7969 L842.4219,29.5 L835.2813,29.5 Z " fill="#000000"/><text fill="#000000" font-family="sans-serif" font-size="14" font-style="italic" lengthAdjust="spacing" textLength="65" x="859.75" y="28.432">Updatable</text><line style="stroke:#000000;stroke-width:0.5;" x1="762.5" x2="989.5" y1="39" y2="39"/><text fill="#000000" font-family="sans-serif" font-size="14" lengthAdjust="spacing" textLength="217" x="767.5" y="57.9659">onUpdate(deltaTime: DeltaTime)</text></g><!--class Extender--><g id="elem_Extender"><rect codeLine="8" fill="#F1F1F1" height="72.4799" id="Extender" rx="3.5" ry="3.5" style="stroke:#181818;stroke-width:0.5;" width="146" x="163" y="319.62"/><ellipse cx="200.95" cy="342.326" fill="#B4A7E5" rx="11" ry="11" style="stroke:#181818;stroke-width:1.0;"/><path d="M196.9813,348.826 L196.9813,347.1229 L199.3406,346.8573 L199.3406,338.6541 L196.9813,338.3885 L196.9813,336.6854 L204.1219,336.6854 L204.1219,338.3885 L201.7,338.6541 L201.7,346.8573 L204.1219,347.1229 L204.1219,348.826 L196.9813,348.826 Z " fill="#000000"/><text fill="#000000" font-family="sans-serif" font-size="12" font-style="italic" lengthAdjust="spacing" textLength="67" x="218.05" y="337.4481">&#171;updatable&#187;</text><text fill="#000000" font-family="sans-serif" font-size="14" font-style="italic" lengthAdjust="spacing" textLength="55" x="224.05" y="355.93">Extender</text><line style="stroke:#181818;stroke-width:0.5;" x1="164" x2="308" y1="365.032" y2="365.032"/><text fill="#000000" font-family="sans-serif" font-size="14" lengthAdjust="spacing" textLength="134" x="169" y="383.998">owner: SceneObject</text></g><!--class SceneObject--><g id="elem_SceneObject"><rect codeLine="12" fill="#F1F1F1" height="118.6158" id="SceneObject" rx="3.5" ry="3.5" style="stroke:#181818;stroke-width:0.5;" width="229" x="347.5" y="296.55"/><ellipse cx="420.25" cy="319.256" fill="#B4A7E5" rx="11" ry="11" style="stroke:#181818;stroke-width:1.0;"/><path d="M416.2813,325.756 L416.2813,324.0529 L418.6406,323.7873 L418.6406,315.5841 L416.2813,315.3185 L416.2813,313.6154 L423.4219,313.6154 L423.4219,315.3185 L421,315.5841 L421,323.7873 L423.4219,324.0529 L423.4219,325.756 L416.2813,325.756 Z " fill="#000000"/><text fill="#000000" font-family="sans-serif" font-size="12" font-style="italic" lengthAdjust="spacing" textLength="67" x="444.75" y="314.3781">&#171;updatable&#187;</text><text fill="#000000" font-family="sans-serif" font-size="14" font-style="italic" lengthAdjust="spacing" textLength="75" x="440.75" y="332.86">SceneObject</text><line style="stroke:#181818;stroke-width:0.5;" x1="348.5" x2="575.5" y1="341.962" y2="341.962"/><text fill="#000000" font-family="sans-serif" font-size="14" lengthAdjust="spacing" textLength="112" x="353.5" y="360.928">position: Vector2</text><text fill="#000000" font-family="sans-serif" font-size="14" lengthAdjust="spacing" textLength="217" x="353.5" y="379.9959">repeatedAction: RepeatedAction</text><line style="stroke:#181818;stroke-width:0.5;" x1="348.5" x2="575.5" y1="388.0979" y2="388.0979"/><text fill="#000000" font-family="sans-serif" font-size="14" lengthAdjust="spacing" textLength="170" x="353.5" y="407.0638">addExtender(e: Extender)</text></g><!--class RepeatedAction--><g id="elem_RepeatedAction"><rect codeLine="18" fill="#F1F1F1" height="97.2038" id="RepeatedAction" rx="3.5" ry="3.5" style="stroke:#181818;stroke-width:0.5;" width="186" x="404" y="494.17"/><ellipse cx="444.65" cy="510.17" fill="#B4A7E5" rx="11" ry="11" style="stroke:#181818;stroke-width:1.0;"/><path d="M440.6813,516.67 L440.6813,514.9669 L443.0406,514.7013 L443.0406,506.4981 L440.6813,506.2325 L440.6813,504.5294 L447.8219,504.5294 L447.8219,506.2325 L445.4,506.4981 L445.4,514.7013 L447.8219,514.9669 L447.8219,516.67 L440.6813,516.67 Z " fill="#000000"/><text fill="#000000" font-family="sans-serif" font-size="14" font-style="italic" lengthAdjust="spacing" textLength="97" x="464.35" y="515.602">RepeatedAction</text><line style="stroke:#181818;stroke-width:0.5;" x1="405" x2="589" y1="526.17" y2="526.17"/><text fill="#000000" font-family="sans-serif" font-size="14" lengthAdjust="spacing" textLength="60" x="410" y="545.1359">execute()</text><text fill="#000000" font-family="sans-serif" font-size="14" lengthAdjust="spacing" textLength="126" x="410" y="564.2039">makeEvent(): Event</text><text fill="#000000" font-family="sans-serif" font-size="14" lengthAdjust="spacing" textLength="174" x="410" y="583.2718">addObserver(o: Observer)</text></g><!--class Observer--><g id="elem_Observer"><rect codeLine="24" fill="#F1F1F1" height="59.0679" id="Observer" rx="3.5" ry="3.5" style="stroke:#181818;stroke-width:0.5;" width="114" x="625" y="513.23"/><ellipse cx="651.25" cy="529.23" fill="#B4A7E5" rx="11" ry="11" style="stroke:#181818;stroke-width:1.0;"/><path d="M647.2813,535.73 L647.2813,534.0269 L649.6406,533.7613 L649.6406,525.5581 L647.2813,525.2925 L647.2813,523.5894 L654.4219,523.5894 L654.4219,525.2925 L652,525.5581 L652,533.7613 L654.4219,534.0269 L654.4219,535.73 L647.2813,535.73 Z " fill="#000000"/><text fill="#000000" font-family="sans-serif" font-size="14" font-style="italic" lengthAdjust="spacing" textLength="57" x="667.75" y="534.662">Observer</text><line style="stroke:#181818;stroke-width:0.5;" x1="626" x2="738" y1="545.23" y2="545.23"/><text fill="#000000" font-family="sans-serif" font-size="14" lengthAdjust="spacing" textLength="102" x="631" y="564.1959">signal(e: Event)</text></g><!--class View--><g id="elem_View"><rect codeLine="28" fill="#F1F1F1" height="72.4799" id="View" rx="3.5" ry="3.5" style="stroke:#181818;stroke-width:0.5;" width="150" x="605" y="145.07"/><ellipse cx="644.75" cy="167.776" fill="#B4A7E5" rx="11" ry="11" style="stroke:#181818;stroke-width:1.0;"/><path d="M640.7813,174.276 L640.7813,172.5729 L643.1406,172.3073 L643.1406,164.1041 L640.7813,163.8385 L640.7813,162.1354 L647.9219,162.1354 L647.9219,163.8385 L645.5,164.1041 L645.5,172.3073 L647.9219,172.5729 L647.9219,174.276 L640.7813,174.276 Z " fill="#000000"/><text fill="#000000" font-family="sans-serif" font-size="12" font-style="italic" lengthAdjust="spacing" textLength="67" x="662.25" y="162.8981">&#171;updatable&#187;</text><text fill="#000000" font-family="sans-serif" font-size="14" font-style="italic" lengthAdjust="spacing" textLength="29" x="681.25" y="181.38">View</text><line style="stroke:#181818;stroke-width:0.5;" x1="606" x2="754" y1="190.482" y2="190.482"/><text fill="#000000" font-family="sans-serif" font-size="14" lengthAdjust="spacing" textLength="138" x="611" y="209.448">bind(s: SceneObject)</text></g><!--class Event--><g id="elem_Event"><rect codeLine="32" fill="#F1F1F1" height="116.2717" id="Event" rx="3.5" ry="3.5" style="stroke:#181818;stroke-width:0.5;" width="137" x="492.5" y="710.44"/><ellipse cx="538.25" cy="726.44" fill="#EB937F" rx="11" ry="11" style="stroke:#181818;stroke-width:1.0;"/><path d="M534.6094,732.94 L534.6094,720.7994 L542.2656,720.7994 L542.2656,722.9244 L536.9844,722.9244 L536.9844,725.5806 L542,725.5806 L542,727.7056 L536.9844,727.7056 L536.9844,730.815 L542.2656,730.815 L542.2656,732.94 L534.6094,732.94 Z " fill="#000000"/><text fill="#000000" font-family="sans-serif" font-size="14" lengthAdjust="spacing" textLength="37" x="558.75" y="731.872">Event</text><line style="stroke:#181818;stroke-width:0.5;" x1="493.5" x2="628.5" y1="742.44" y2="742.44"/><text fill="#000000" font-family="sans-serif" font-size="14" lengthAdjust="spacing" textLength="30" x="498.5" y="761.4059">Stop</text><text fill="#000000" font-family="sans-serif" font-size="14" lengthAdjust="spacing" textLength="125" x="498.5" y="780.4739">ResumeMovement</text><text fill="#000000" font-family="sans-serif" font-size="14" lengthAdjust="spacing" textLength="103" x="498.5" y="799.5418">ChangeVelocity</text><text fill="#000000" font-family="sans-serif" font-size="14" lengthAdjust="spacing" textLength="87" x="498.5" y="818.6097">ChangeColor</text></g><!--class Controller--><g id="elem_Controller"><rect codeLine="39" fill="#F1F1F1" height="59.0679" id="Controller" rx="3.5" ry="3.5" style="stroke:#181818;stroke-width:0.5;" width="234" x="138" y="7"/><ellipse cx="218.75" cy="23" fill="#B4A7E5" rx="11" ry="11" style="stroke:#181818;stroke-width:1.0;"/><path d="M214.7813,29.5 L214.7813,27.7969 L217.1406,27.5313 L217.1406,19.3281 L214.7813,19.0625 L214.7813,17.3594 L221.9219,17.3594 L221.9219,19.0625 L219.5,19.3281 L219.5,27.5313 L221.9219,27.7969 L221.9219,29.5 L214.7813,29.5 Z " fill="#000000"/><text fill="#000000" font-family="sans-serif" font-size="14" font-style="italic" lengthAdjust="spacing" textLength="64" x="239.25" y="28.432">Controller</text><line style="stroke:#181818;stroke-width:0.5;" x1="139" x2="371" y1="39" y2="39"/><text fill="#000000" font-family="sans-serif" font-size="14" lengthAdjust="spacing" textLength="222" x="144" y="57.9659">loop(f: Function[DeltaTime, Unit])</text></g><!--class ControllerImpl--><g id="elem_ControllerImpl"><rect codeLine="43" fill="#F1F1F1" height="32" id="ControllerImpl" rx="3.5" ry="3.5" style="stroke:#181818;stroke-width:0.5;" width="130" x="190" y="165.31"/><ellipse cx="205" cy="181.31" fill="#ADD1B2" rx="11" ry="11" style="stroke:#181818;stroke-width:1.0;"/><path d="M204.4688,188.2319 Q202.7188,188.2319 201.5781,187.4975 Q200.4531,186.7475 199.8906,185.4038 Q199.3438,184.0444 199.3438,182.2475 Q199.3438,180.2163 200,178.7631 Q200.6563,177.31 201.9375,176.5288 Q203.2188,175.7475 205.0938,175.7475 Q205.9844,175.7475 206.6563,175.935 Q207.3281,176.1069 208.0156,176.4506 L207.2031,178.4663 Q206.5781,178.1538 206.0313,178.0288 Q205.5,177.9038 205.0156,177.9038 Q203.8438,177.9038 203.1406,178.435 Q202.4375,178.9663 202.1406,179.9194 Q201.8438,180.8725 201.8438,182.1381 Q201.8438,184.1538 202.5625,185.1225 Q203.2813,186.0756 204.875,186.0756 Q205.4688,186.0756 206.0938,185.9194 Q206.7188,185.7631 207.5469,185.3881 L207.5469,187.6069 Q206.8125,187.9194 206.0156,188.0756 Q205.2344,188.2319 204.4688,188.2319 Z " fill="#000000"/><text fill="#000000" font-family="sans-serif" font-size="14" lengthAdjust="spacing" textLength="98" x="219" y="186.742">ControllerImpl</text></g><!--class MovingObject--><g id="elem_MovingObject"><rect codeLine="45" fill="#F1F1F1" height="32" id="MovingObject" rx="3.5" ry="3.5" style="stroke:#181818;stroke-width:0.5;" width="119" x="259.5" y="752.57"/><ellipse cx="274.5" cy="768.57" fill="#A9DCDF" rx="11" ry="11" style="stroke:#181818;stroke-width:1.0;"/><path d="M269.6719,774.32 L273.0156,762.1325 L276.1563,762.1325 L279.5313,774.32 L277.0625,774.32 L276.3281,771.3044 L272.8125,771.3044 L272.0625,774.32 L269.6719,774.32 Z M274.0781,766.2731 L273.3281,769.2731 L275.8438,769.2731 L275.125,766.2731 Q274.9844,765.695 274.8594,765.1481 Q274.7344,764.5856 274.5938,764.0075 Q274.4844,764.5856 274.3438,765.1481 Q274.2031,765.695 274.0781,766.2731 Z " fill="#000000"/><text fill="#000000" font-family="sans-serif" font-size="14" font-style="italic" lengthAdjust="spacing" textLength="87" x="288.5" y="774.002">MovingObject</text></g><!--class Model--><g id="elem_Model"><rect codeLine="47" fill="#F1F1F1" height="59.0679" id="Model" rx="3.5" ry="3.5" style="stroke:#181818;stroke-width:0.5;" width="215" x="355.5" y="151.78"/><ellipse cx="439.25" cy="167.78" fill="#B4A7E5" rx="11" ry="11" style="stroke:#181818;stroke-width:1.0;"/><path d="M435.2813,174.28 L435.2813,172.5769 L437.6406,172.3113 L437.6406,164.1081 L435.2813,163.8425 L435.2813,162.1394 L442.4219,162.1394 L442.4219,163.8425 L440,164.1081 L440,172.3113 L442.4219,172.5769 L442.4219,174.28 L435.2813,174.28 Z " fill="#000000"/><text fill="#000000" font-family="sans-serif" font-size="14" font-style="italic" lengthAdjust="spacing" textLength="39" x="459.75" y="173.212">Model</text><line style="stroke:#181818;stroke-width:0.5;" x1="356.5" x2="569.5" y1="183.78" y2="183.78"/><text fill="#000000" font-family="sans-serif" font-size="14" lengthAdjust="spacing" textLength="203" x="361.5" y="202.7459">objects: Iterable[SceneObject]</text></g><!--class Movement--><g id="elem_Movement"><rect codeLine="51" fill="#F1F1F1" height="59.0679" id="Movement" rx="3.5" ry="3.5" style="stroke:#181818;stroke-width:0.5;" width="134" x="164" y="513.23"/><ellipse cx="192.95" cy="529.23" fill="#ADD1B2" rx="11" ry="11" style="stroke:#181818;stroke-width:1.0;"/><path d="M192.4188,536.1519 Q190.6688,536.1519 189.5281,535.4175 Q188.4031,534.6675 187.8406,533.3238 Q187.2938,531.9644 187.2938,530.1675 Q187.2938,528.1363 187.95,526.6831 Q188.6063,525.23 189.8875,524.4488 Q191.1688,523.6675 193.0438,523.6675 Q193.9344,523.6675 194.6063,523.855 Q195.2781,524.0269 195.9656,524.3706 L195.1531,526.3863 Q194.5281,526.0738 193.9813,525.9488 Q193.45,525.8238 192.9656,525.8238 Q191.7938,525.8238 191.0906,526.355 Q190.3875,526.8863 190.0906,527.8394 Q189.7938,528.7925 189.7938,530.0581 Q189.7938,532.0738 190.5125,533.0425 Q191.2313,533.9956 192.825,533.9956 Q193.4188,533.9956 194.0438,533.8394 Q194.6688,533.6831 195.4969,533.3081 L195.4969,535.5269 Q194.7625,535.8394 193.9656,535.9956 Q193.1844,536.1519 192.4188,536.1519 Z " fill="#000000"/><text fill="#000000" font-family="sans-serif" font-size="14" lengthAdjust="spacing" textLength="71" x="210.05" y="534.662">Movement</text><line style="stroke:#181818;stroke-width:0.5;" x1="165" x2="297" y1="545.23" y2="545.23"/><rect fill="none" height="6" style="stroke:#C82930;stroke-width:1.0;" width="6" x="172" y="557.264"/><text fill="#000000" font-family="sans-serif" font-size="14" lengthAdjust="spacing" textLength="108" x="184" y="564.1959">velocity: Vector2</text></g><!--class Colorful--><g id="elem_Colorful"><rect codeLine="55" fill="#F1F1F1" height="59.0679" id="Colorful" rx="3.5" ry="3.5" style="stroke:#181818;stroke-width:0.5;" width="102" x="60" y="621.37"/><ellipse cx="82.65" cy="637.37" fill="#ADD1B2" rx="11" ry="11" style="stroke:#181818;stroke-width:1.0;"/><path d="M82.1188,644.2919 Q80.3688,644.2919 79.2281,643.5575 Q78.1031,642.8075 77.5406,641.4638 Q76.9938,640.1044 76.9938,638.3075 Q76.9938,636.2763 77.65,634.8231 Q78.3063,633.37 79.5875,632.5888 Q80.8688,631.8075 82.7438,631.8075 Q83.6344,631.8075 84.3063,631.995 Q84.9781,632.1669 85.6656,632.5106 L84.8531,634.5263 Q84.2281,634.2138 83.6813,634.0888 Q83.15,633.9638 82.6656,633.9638 Q81.4938,633.9638 80.7906,634.495 Q80.0875,635.0263 79.7906,635.9794 Q79.4938,636.9325 79.4938,638.1981 Q79.4938,640.2138 80.2125,641.1825 Q80.9313,642.1356 82.525,642.1356 Q83.1188,642.1356 83.7438,641.9794 Q84.3688,641.8231 85.1969,641.4481 L85.1969,643.6669 Q84.4625,643.9794 83.6656,644.1356 Q82.8844,644.2919 82.1188,644.2919 Z " fill="#000000"/><text fill="#000000" font-family="sans-serif" font-size="14" lengthAdjust="spacing" textLength="53" x="98.35" y="642.802">Colorful</text><line style="stroke:#181818;stroke-width:0.5;" x1="61" x2="161" y1="653.37" y2="653.37"/><rect fill="none" height="6" style="stroke:#C82930;stroke-width:1.0;" width="6" x="68" y="665.404"/><text fill="#000000" font-family="sans-serif" font-size="14" lengthAdjust="spacing" textLength="76" x="80" y="672.3359">color: Color</text></g><!--class Terminal--><g id="elem_Terminal"><rect fill="#F1F1F1" height="32" id="Terminal" rx="3.5" ry="3.5" style="stroke:#181818;stroke-width:0.5;" width="92" x="634" y="20.54"/><ellipse cx="649" cy="36.54" fill="#ADD1B2" rx="11" ry="11" style="stroke:#181818;stroke-width:1.0;"/><path d="M648.4688,43.4619 Q646.7188,43.4619 645.5781,42.7275 Q644.4531,41.9775 643.8906,40.6338 Q643.3438,39.2744 643.3438,37.4775 Q643.3438,35.4463 644,33.9931 Q644.6563,32.54 645.9375,31.7588 Q647.2188,30.9775 649.0938,30.9775 Q649.9844,30.9775 650.6563,31.165 Q651.3281,31.3369 652.0156,31.6806 L651.2031,33.6963 Q650.5781,33.3838 650.0313,33.2588 Q649.5,33.1338 649.0156,33.1338 Q647.8438,33.1338 647.1406,33.665 Q646.4375,34.1963 646.1406,35.1494 Q645.8438,36.1025 645.8438,37.3681 Q645.8438,39.3838 646.5625,40.3525 Q647.2813,41.3056 648.875,41.3056 Q649.4688,41.3056 650.0938,41.1494 Q650.7188,40.9931 651.5469,40.6181 L651.5469,42.8369 Q650.8125,43.1494 650.0156,43.3056 Q649.2344,43.4619 648.4688,43.4619 Z " fill="#000000"/><text fill="#000000" font-family="sans-serif" font-size="14" lengthAdjust="spacing" textLength="60" x="663" y="41.972">Terminal</text></g><!--class ObjectWithStop--><g id="elem_ObjectWithStop"><rect fill="#F1F1F1" height="32" id="ObjectWithStop" rx="3.5" ry="3.5" style="stroke:#181818;stroke-width:0.5;" width="137" x="250.5" y="887.71"/><ellipse cx="265.5" cy="903.71" fill="#ADD1B2" rx="11" ry="11" style="stroke:#181818;stroke-width:1.0;"/><path d="M264.9688,910.6319 Q263.2188,910.6319 262.0781,909.8975 Q260.9531,909.1475 260.3906,907.8038 Q259.8438,906.4444 259.8438,904.6475 Q259.8438,902.6163 260.5,901.1631 Q261.1563,899.71 262.4375,898.9288 Q263.7188,898.1475 265.5938,898.1475 Q266.4844,898.1475 267.1563,898.335 Q267.8281,898.5069 268.5156,898.8506 L267.7031,900.8663 Q267.0781,900.5538 266.5313,900.4288 Q266,900.3038 265.5156,900.3038 Q264.3438,900.3038 263.6406,900.835 Q262.9375,901.3663 262.6406,902.3194 Q262.3438,903.2725 262.3438,904.5381 Q262.3438,906.5538 263.0625,907.5225 Q263.7813,908.4756 265.375,908.4756 Q265.9688,908.4756 266.5938,908.3194 Q267.2188,908.1631 268.0469,907.7881 L268.0469,910.0069 Q267.3125,910.3194 266.5156,910.4756 Q265.7344,910.6319 264.9688,910.6319 Z " fill="#000000"/><text fill="#000000" font-family="sans-serif" font-size="14" lengthAdjust="spacing" textLength="105" x="279.5" y="909.142">ObjectWithStop</text></g><!--class ObjectWithChangingVelocity--><g id="elem_ObjectWithChangingVelocity"><rect fill="#F1F1F1" height="32" id="ObjectWithChangingVelocity" rx="3.5" ry="3.5" style="stroke:#181818;stroke-width:0.5;" width="224" x="423" y="887.71"/><ellipse cx="438" cy="903.71" fill="#ADD1B2" rx="11" ry="11" style="stroke:#181818;stroke-width:1.0;"/><path d="M437.4688,910.6319 Q435.7188,910.6319 434.5781,909.8975 Q433.4531,909.1475 432.8906,907.8038 Q432.3438,906.4444 432.3438,904.6475 Q432.3438,902.6163 433,901.1631 Q433.6563,899.71 434.9375,898.9288 Q436.2188,898.1475 438.0938,898.1475 Q438.9844,898.1475 439.6563,898.335 Q440.3281,898.5069 441.0156,898.8506 L440.2031,900.8663 Q439.5781,900.5538 439.0313,900.4288 Q438.5,900.3038 438.0156,900.3038 Q436.8438,900.3038 436.1406,900.835 Q435.4375,901.3663 435.1406,902.3194 Q434.8438,903.2725 434.8438,904.5381 Q434.8438,906.5538 435.5625,907.5225 Q436.2813,908.4756 437.875,908.4756 Q438.4688,908.4756 439.0938,908.3194 Q439.7188,908.1631 440.5469,907.7881 L440.5469,910.0069 Q439.8125,910.3194 439.0156,910.4756 Q438.2344,910.6319 437.4688,910.6319 Z " fill="#000000"/><text fill="#000000" font-family="sans-serif" font-size="14" lengthAdjust="spacing" textLength="192" x="452" y="909.142">ObjectWithChangingVelocity</text></g><!--class ObjectWithChangingColor--><g id="elem_ObjectWithChangingColor"><rect fill="#F1F1F1" height="32" id="ObjectWithChangingColor" rx="3.5" ry="3.5" style="stroke:#181818;stroke-width:0.5;" width="208" x="7" y="887.71"/><ellipse cx="22" cy="903.71" fill="#ADD1B2" rx="11" ry="11" style="stroke:#181818;stroke-width:1.0;"/><path d="M21.4688,910.6319 Q19.7188,910.6319 18.5781,909.8975 Q17.4531,909.1475 16.8906,907.8038 Q16.3438,906.4444 16.3438,904.6475 Q16.3438,902.6163 17,901.1631 Q17.6563,899.71 18.9375,898.9288 Q20.2188,898.1475 22.0938,898.1475 Q22.9844,898.1475 23.6563,898.335 Q24.3281,898.5069 25.0156,898.8506 L24.2031,900.8663 Q23.5781,900.5538 23.0313,900.4288 Q22.5,900.3038 22.0156,900.3038 Q20.8438,900.3038 20.1406,900.835 Q19.4375,901.3663 19.1406,902.3194 Q18.8438,903.2725 18.8438,904.5381 Q18.8438,906.5538 19.5625,907.5225 Q20.2813,908.4756 21.875,908.4756 Q22.4688,908.4756 23.0938,908.3194 Q23.7188,908.1631 24.5469,907.7881 L24.5469,910.0069 Q23.8125,910.3194 23.0156,910.4756 Q22.2344,910.6319 21.4688,910.6319 Z " fill="#000000"/><text fill="#000000" font-family="sans-serif" font-size="14" lengthAdjust="spacing" textLength="176" x="36" y="909.142">ObjectWithChangingColor</text></g><!--reverse link Extender to RepeatedAction--><g id="link_Extender_RepeatedAction"><path codeLine="59" d="M301.008,402.9149 C341.748,431.7749 384.81,462.29 429.55,493.98 " fill="none" id="Extender-backto-RepeatedAction" style="stroke:#454645;stroke-width:1.0;"/><polygon fill="none" points="286.32,392.51,297.5397,407.8109,304.4763,398.0189,286.32,392.51" style="stroke:#454645;stroke-width:1.0;"/></g><!--link View to Observer--><g id="link_View_Observer"><path codeLine="60" d="M680.2,217.76 C680.59,288.96 681.3804,430.1003 681.7404,495.1903 " fill="none" id="View-to-Observer" style="stroke:#454645;stroke-width:1.0;"/><polygon fill="none" points="681.84,513.19,687.7404,495.1571,675.7405,495.2235,681.84,513.19" style="stroke:#454645;stroke-width:1.0;"/></g><!--link View to SceneObject--><g id="link_View_SceneObject"><path codeLine="61" d="M635.09,217.85 C606.55,240.45 573.6143,266.5158 540.7343,292.5458 " fill="none" id="View-to-SceneObject" style="stroke:#454645;stroke-width:1.0;"/><polygon fill="#454645" points="536.03,296.27,545.5692,293.8199,539.9502,293.1665,540.6036,287.5475,536.03,296.27" style="stroke:#454645;stroke-width:1.0;"/><text fill="#000000" font-family="sans-serif" font-size="13" lengthAdjust="spacing" textLength="54" x="597" y="262.447">observes</text></g><!--link Extender to SceneObject--><g id="link_Extender_SceneObject"><path codeLine="62" d="M309.27,355.86 C321.9,355.86 322.53,355.86 335.16,355.86 " fill="none" id="Extender-to-SceneObject" style="stroke:#454645;stroke-width:1.0;"/><polygon fill="none" points="347.16,355.86,341.16,351.86,335.16,355.86,341.16,359.86,347.16,355.86" style="stroke:#454645;stroke-width:1.0;"/><text fill="#000000" font-family="sans-serif" font-size="13" lengthAdjust="spacing" textLength="7" x="317.1869" y="351.9169">*</text><text fill="#000000" font-family="sans-serif" font-size="13" lengthAdjust="spacing" textLength="7" x="332.5788" y="352.2352">1</text></g><!--link SceneObject to RepeatedAction--><g id="link_SceneObject_RepeatedAction"><path codeLine="63" d="M473.12,415.62 C477.89,440.79 482.2632,463.9248 486.7832,487.7848 " fill="none" id="SceneObject-to-RepeatedAction" style="stroke:#454645;stroke-width:1.0;"/><polygon fill="#454645" points="487.9,493.68,490.1549,484.0928,486.9694,488.7674,482.2947,485.5818,487.9,493.68" style="stroke:#454645;stroke-width:1.0;"/><text fill="#000000" font-family="sans-serif" font-size="13" lengthAdjust="spacing" textLength="76" x="482" y="460.067">repeats logic</text></g><!--reverse link RepeatedAction to Observer--><g id="link_RepeatedAction_Observer"><path codeLine="64" d="M602.22,542.77 C613.69,542.77 613.17,542.77 624.64,542.77 " fill="none" id="RepeatedAction-backto-Observer" style="stroke:#454645;stroke-width:1.0;"/><polygon fill="none" points="590.22,542.77,596.22,546.77,602.22,542.77,596.22,538.77,590.22,542.77" style="stroke:#454645;stroke-width:1.0;"/><text fill="#000000" font-family="sans-serif" font-size="13" lengthAdjust="spacing" textLength="7" x="597.9274" y="539.0177">*</text><text fill="#000000" font-family="sans-serif" font-size="13" lengthAdjust="spacing" textLength="7" x="609.8423" y="538.624">*</text></g><!--link Terminal to View--><g id="link_Terminal_View"><path codeLine="65" d="M680,52.82 C680,74.61 680,97.26 680,126.82 " fill="none" id="Terminal-to-View" style="stroke:#454645;stroke-width:1.0;stroke-dasharray:7.0,7.0;"/><polygon fill="none" points="680,144.82,686,126.82,674,126.82,680,144.82" style="stroke:#454645;stroke-width:1.0;"/></g><!--reverse link Extender to Colorful--><g id="link_Extender_Colorful"><path codeLine="66" d="M197.225,406.9508 C177.525,433.5808 162.7,457.16 147,494.17 C129.07,536.45 119.28,589.15 114.59,621.13 " fill="none" id="Extender-backto-Colorful" style="stroke:#454645;stroke-width:1.0;stroke-dasharray:7.0,7.0;"/><polygon fill="none" points="207.93,392.48,192.4014,403.3824,202.0486,410.5191,207.93,392.48" style="stroke:#454645;stroke-width:1.0;"/></g><!--reverse link Extender to Movement--><g id="link_Extender_Movement"><path codeLine="67" d="M234.5523,410.5034 C233.6023,445.5534 232.66,480.4 231.78,512.9 " fill="none" id="Extender-backto-Movement" style="stroke:#454645;stroke-width:1.0;stroke-dasharray:7.0,7.0;"/><polygon fill="none" points="235.04,392.51,228.5545,410.3408,240.5501,410.666,235.04,392.51" style="stroke:#454645;stroke-width:1.0;"/></g><!--link RepeatedAction to Event--><g id="link_RepeatedAction_Event"><path codeLine="68" d="M510.73,591.78 C520.65,626.46 532.4298,667.6814 542.9198,704.3514 " fill="none" id="RepeatedAction-to-Event" style="stroke:#454645;stroke-width:1.0;"/><polygon fill="#454645" points="544.57,710.12,545.9404,700.367,543.1948,705.3128,538.249,702.5672,544.57,710.12" style="stroke:#454645;stroke-width:1.0;"/><text fill="#000000" font-family="sans-serif" font-size="13" lengthAdjust="spacing" textLength="33" x="535" y="656.297">emits</text></g><!--link Observer to Event--><g id="link_Observer_Event"><path codeLine="69" d="M666.43,572.57 C647.73,607.16 618.7531,660.7418 594.9531,704.7718 " fill="none" id="Observer-to-Event" style="stroke:#454645;stroke-width:1.0;"/><polygon fill="#454645" points="592.1,710.05,599.8985,704.0347,594.4776,705.6515,592.8608,700.2306,592.1,710.05" style="stroke:#454645;stroke-width:1.0;"/><text fill="#000000" font-family="sans-serif" font-size="13" lengthAdjust="spacing" textLength="54" x="640" y="656.297">listens to</text></g><!--reverse link SceneObject to MovingObject--><g id="link_SceneObject_MovingObject"><path codeLine="70" d="M416.7737,431.0408 C403.1937,454.8208 397.46,467.34 387,494.17 C350.03,588.95 328.25,710.2 321.38,752.34 " fill="none" id="SceneObject-backto-MovingObject" style="stroke:#454645;stroke-width:1.0;stroke-dasharray:7.0,7.0;"/><polygon fill="none" points="425.7,415.41,411.5635,428.0654,421.984,434.0162,425.7,415.41" style="stroke:#454645;stroke-width:1.0;"/></g><!--reverse link Movement to MovingObject--><g id="link_Movement_MovingObject"><path codeLine="71" d="M232.311,578.5979 C234.121,607.0479 238.97,645.26 254,680.44 C266.01,708.55 288.85,735.98 304,752.33 " fill="none" id="Movement-backto-MovingObject" style="stroke:#454645;stroke-width:1.0;"/><polygon fill="#454645" points="231.93,572.61,228.5095,581.8458,232.2475,577.5999,236.4934,581.3379,231.93,572.61" style="stroke:#454645;stroke-width:1.0;"/><text fill="#000000" font-family="sans-serif" font-size="13" lengthAdjust="spacing" textLength="69" x="255" y="656.297">moves with</text></g><!--reverse link MovingObject to ObjectWithStop--><g id="link_MovingObject_ObjectWithStop"><path codeLine="72" d="M319,802.85 C319,828.53 319,862.05 319,887.62 " fill="none" id="MovingObject-backto-ObjectWithStop" style="stroke:#454645;stroke-width:1.0;"/><polygon fill="none" points="319,784.85,313,802.85,325,802.85,319,784.85" style="stroke:#454645;stroke-width:1.0;"/></g><!--reverse link MovingObject to ObjectWithChangingVelocity--><g id="link_MovingObject_ObjectWithChangingVelocity"><path codeLine="73" d="M359.1031,794.2947 C400.6531,819.9047 468.6,861.78 510.18,887.41 " fill="none" id="MovingObject-backto-ObjectWithChangingVelocity" style="stroke:#454645;stroke-width:1.0;"/><polygon fill="none" points="343.78,784.85,355.9549,799.4024,362.2514,789.1869,343.78,784.85" style="stroke:#454645;stroke-width:1.0;"/></g><!--reverse link MovingObject to ObjectWithChangingColor--><g id="link_MovingObject_ObjectWithChangingColor"><path codeLine="74" d="M279.9786,794.5522 C239.9586,820.1622 174.94,861.78 134.9,887.41 " fill="none" id="MovingObject-backto-ObjectWithChangingColor" style="stroke:#454645;stroke-width:1.0;"/><polygon fill="none" points="295.14,784.85,276.7446,789.4984,283.2127,799.606,295.14,784.85" style="stroke:#454645;stroke-width:1.0;"/></g><!--reverse link Controller to ControllerImpl--><g id="link_Controller_ControllerImpl"><path codeLine="75" d="M255,84.43 C255,114.25 255,141.63 255,165.09 " fill="none" id="Controller-backto-ControllerImpl" style="stroke:#454645;stroke-width:1.0;stroke-dasharray:7.0,7.0;"/><polygon fill="none" points="255,66.43,249,84.43,261,84.43,255,66.43" style="stroke:#454645;stroke-width:1.0;"/></g><!--link ControllerImpl to SceneObject--><g id="link_ControllerImpl_SceneObject"><path codeLine="76" d="M273.37,197.62 C299.79,219.65 345.3409,257.6187 387.3009,292.5887 " fill="none" id="ControllerImpl-to-SceneObject" style="stroke:#454645;stroke-width:1.0;"/><polygon fill="#454645" points="391.91,296.43,387.5572,287.5953,388.069,293.2289,382.4354,293.7408,391.91,296.43" style="stroke:#454645;stroke-width:1.0;"/><text fill="#000000" font-family="sans-serif" font-size="13" lengthAdjust="spacing" textLength="49" x="354" y="262.447">updates</text></g><!--link ControllerImpl to View--><g id="link_ControllerImpl_View"><path codeLine="77" d="M285.19,164.85 C320.48,146.67 381.26,118.65 437.5,108.69 C499.06,97.79 561.6694,118.8367 609.9694,141.9867 " fill="none" id="ControllerImpl-to-View" style="stroke:#454645;stroke-width:1.0;"/><polygon fill="#454645" points="615.38,144.58,608.9929,137.083,610.8711,142.4189,605.5352,144.2971,615.38,144.58" style="stroke:#454645;stroke-width:1.0;"/><text fill="#000000" font-family="sans-serif" font-size="13" lengthAdjust="spacing" textLength="49" x="438.5" y="110.967">updates</text></g><!--reverse link Model to SceneObject--><g id="link_Model_SceneObject"><path codeLine="78" d="M462.7625,223.1898 C462.6325,246.3098 462.51,267.5 462.34,296.15 " fill="none" id="Model-backto-SceneObject" style="stroke:#454645;stroke-width:1.0;"/><polygon fill="none" points="462.83,211.19,458.7963,217.1674,462.7625,223.1898,466.7962,217.2124,462.83,211.19" style="stroke:#454645;stroke-width:1.0;"/><text fill="#000000" font-family="sans-serif" font-size="13" lengthAdjust="spacing" textLength="7" x="455.1075" y="232.7118">1</text><text fill="#000000" font-family="sans-serif" font-size="13" lengthAdjust="spacing" textLength="20" x="441.1627" y="284.7772">1..*</text></g><!--reverse link Colorful to ObjectWithChangingColor--><g id="link_Colorful_ObjectWithChangingColor"><path codeLine="79" d="M111,686.68 C111,739.94 111,846.24 111,887.28 " fill="none" id="Colorful-backto-ObjectWithChangingColor" style="stroke:#454645;stroke-width:1.0;"/><polygon fill="#454645" points="111,680.68,107,689.68,111,685.68,115,689.68,111,680.68" style="stroke:#454645;stroke-width:1.0;"/><text fill="#000000" font-family="sans-serif" font-size="13" lengthAdjust="spacing" textLength="21" x="112" y="773.967">has</text></g><!--SRC=[ZPDDRzim38Rl-XLQTacAsLXtz880GzOD1LOKw4TsA7gGRSRMAak692Sjrlttqh9bMsutp9T88ldgfVZadIsX0dhWgMRI4iAb1Rrd6T3REcUMfGBe-vHb3yaFNfJskmQGdmMNa7nq7_rDA7vAkdHOvY0ik-4L9FIhNwx8dwdmsQC5cOEcwtNZxzXilD1HWaxeTGOIBjDVaDcmU19uixvMXbkkP49tcABq9tUgeGPqbt_9kjXLi7SfBC-ziIMQz-kPzx2mlnCU8MkmzvNRLUm1pWuWxNA5Ckt2wr-c1lG1zLL2_NgcxuzxPSCBoOJpqmhDadSSZcy-GifblZJ1AxfIa4tLAVM9rrRLRd45fgdWGXqGXjxmjcIoW1q8bN7xD3dQAg5qw6IhfDLAYC6uKAfUxXFwhP7kfUu663xGMydjlVEJ2MRCfFYygWKXB3LMCvmlsk6ow2cOt7QXa3BFYujYh-SORH_XRjBq_NY9RwqlYmvzNoCd4p_OtxxnDqHPkq_eqFR8xtCq9ycD98gUDyCa_T4cG3T1uovkHhd5oO96YYvE5m7-qx9MPePWqiDjyCqBdf5Pk1LLaViP7Ds0hZXoHUCOZRR-fZt5yV02i-C1ZzaThQkEgeH2nQqX0yRJaE06rGorAkZ9Iu-Z7cQrZg8WWY8LnWmzSbkI88ApY6Yt_eb11_Q_4XpA61tu_f_a3e49xFrh1Vo6M_fgyExlYdD_dUT86HCwp5iS5BfPdCRnIKZ60EhwxsvHhsI6a9BdWCEfxHEje4f16_82]--></g></svg>