<?xml version="1.0" encoding="us-ascii" standalone="no"?><svg xmlns="http://www.w3.org/2000/svg" xmlns:xlink="http://www.w3.org/1999/xlink" contentStyleType="text/css" height="388px" preserveAspectRatio="none" style="width:591px;height:388px;background:#FFFFFF;" version="1.1" viewBox="0 0 591 388" width="591px" zoomAndPan="magnify"><defs/><g><!--class SystemHolder--><g id="elem_SystemHolder"><rect codeLine="4" fill="#F1F1F1" height="59.0679" id="SystemHolder" rx="3.5" ry="3.5" style="stroke:#181818;stroke-width:0.5;" width="208" x="127" y="7"/><ellipse cx="183.25" cy="23" fill="#B4A7E5" rx="11" ry="11" style="stroke:#181818;stroke-width:1.0;"/><path d="M179.2813,29.5 L179.2813,27.7969 L181.6406,27.5313 L181.6406,19.3281 L179.2813,19.0625 L179.2813,17.3594 L186.4219,17.3594 L186.4219,19.0625 L184,19.3281 L184,27.5313 L186.4219,27.7969 L186.4219,29.5 L179.2813,29.5 Z " fill="#000000"/><text fill="#000000" font-family="sans-serif" font-size="14" font-style="italic" lengthAdjust="spacing" textLength="87" x="203.75" y="28.432">SystemHolder</text><line style="stroke:#181818;stroke-width:0.5;" x1="128" x2="334" y1="39" y2="39"/><text fill="#000000" font-family="sans-serif" font-size="14" lengthAdjust="spacing" textLength="196" x="133" y="57.9659">bindSystemsTo(world: World)</text></g><!--class Model--><g id="elem_Model"><rect codeLine="8" fill="#F1F1F1" height="59.0679" id="Model" rx="3.5" ry="3.5" style="stroke:#181818;stroke-width:0.5;" width="203" x="73.5" y="127.07"/><ellipse cx="151.25" cy="143.07" fill="#B4A7E5" rx="11" ry="11" style="stroke:#181818;stroke-width:1.0;"/><path d="M147.2813,149.57 L147.2813,147.8669 L149.6406,147.6013 L149.6406,139.3981 L147.2813,139.1325 L147.2813,137.4294 L154.4219,137.4294 L154.4219,139.1325 L152,139.3981 L152,147.6013 L154.4219,147.8669 L154.4219,149.57 L147.2813,149.57 Z " fill="#000000"/><text fill="#000000" font-family="sans-serif" font-size="14" font-style="italic" lengthAdjust="spacing" textLength="39" x="171.75" y="148.502">Model</text><line style="stroke:#181818;stroke-width:0.5;" x1="74.5" x2="275.5" y1="159.07" y2="159.07"/><text fill="#000000" font-family="sans-serif" font-size="14" lengthAdjust="spacing" textLength="191" x="79.5" y="178.0359">bindEntitiesTo(world: World)</text></g><!--class Controller--><g id="elem_Controller"><rect codeLine="12" fill="#F1F1F1" height="32" id="Controller" rx="3.5" ry="3.5" style="stroke:#181818;stroke-width:0.5;" width="96" x="311" y="140.6"/><ellipse cx="326" cy="156.6" fill="#B4A7E5" rx="11" ry="11" style="stroke:#181818;stroke-width:1.0;"/><path d="M322.0313,163.1 L322.0313,161.3969 L324.3906,161.1313 L324.3906,152.9281 L322.0313,152.6625 L322.0313,150.9594 L329.1719,150.9594 L329.1719,152.6625 L326.75,152.9281 L326.75,161.1313 L329.1719,161.3969 L329.1719,163.1 L322.0313,163.1 Z " fill="#000000"/><text fill="#000000" font-family="sans-serif" font-size="14" font-style="italic" lengthAdjust="spacing" textLength="64" x="340" y="162.032">Controller</text></g><!--class View--><g id="elem_View"><rect codeLine="14" fill="#F1F1F1" height="116.2717" id="View" rx="3.5" ry="3.5" style="stroke:#181818;stroke-width:0.5;" width="450" x="134" y="265.14"/><ellipse cx="340.25" cy="281.14" fill="#B4A7E5" rx="11" ry="11" style="stroke:#181818;stroke-width:1.0;"/><path d="M336.2813,287.64 L336.2813,285.9369 L338.6406,285.6713 L338.6406,277.4681 L336.2813,277.2025 L336.2813,275.4994 L343.4219,275.4994 L343.4219,277.2025 L341,277.4681 L341,285.6713 L343.4219,285.9369 L343.4219,287.64 L336.2813,287.64 Z " fill="#000000"/><text fill="#000000" font-family="sans-serif" font-size="14" font-style="italic" lengthAdjust="spacing" textLength="29" x="360.75" y="286.572">View</text><line style="stroke:#181818;stroke-width:0.5;" x1="135" x2="583" y1="297.14" y2="297.14"/><text fill="#000000" font-family="sans-serif" font-size="14" lengthAdjust="spacing" textLength="202" x="140" y="316.1059">handleStoppedEvent(e: Entity)</text><text fill="#000000" font-family="sans-serif" font-size="14" lengthAdjust="spacing" textLength="209" x="140" y="335.1739">handleResumedEvent(e: Entity)</text><text fill="#000000" font-family="sans-serif" font-size="14" lengthAdjust="spacing" textLength="438" x="140" y="354.2418">handleChangedVelocityEvent(e: Entity, ev: ChangedVelocityEvent)</text><text fill="#000000" font-family="sans-serif" font-size="14" lengthAdjust="spacing" textLength="406" x="140" y="373.3097">handleChangedColorEvent(e: Entity, ev: ChangedColorEvent)</text></g><!--class World--><g id="elem_World"><rect codeLine="21" fill="#F1F1F1" height="32" id="World" rx="3.5" ry="3.5" style="stroke:#181818;stroke-width:0.5;" width="70" x="404" y="20.54"/><ellipse cx="419" cy="36.54" fill="#B4A7E5" rx="11" ry="11" style="stroke:#181818;stroke-width:1.0;"/><path d="M415.0313,43.04 L415.0313,41.3369 L417.3906,41.0713 L417.3906,32.8681 L415.0313,32.6025 L415.0313,30.8994 L422.1719,30.8994 L422.1719,32.6025 L419.75,32.8681 L419.75,41.0713 L422.1719,41.3369 L422.1719,43.04 L415.0313,43.04 Z " fill="#000000"/><text fill="#000000" font-family="sans-serif" font-size="14" font-style="italic" lengthAdjust="spacing" textLength="38" x="433" y="41.972">World</text></g><!--class System--><g id="elem_System"><rect codeLine="23" fill="#F1F1F1" height="32" id="System" rx="3.5" ry="3.5" style="stroke:#181818;stroke-width:0.5;" width="76" x="16" y="20.54"/><ellipse cx="31" cy="36.54" fill="#B4A7E5" rx="11" ry="11" style="stroke:#181818;stroke-width:1.0;"/><path d="M27.0313,43.04 L27.0313,41.3369 L29.3906,41.0713 L29.3906,32.8681 L27.0313,32.6025 L27.0313,30.8994 L34.1719,30.8994 L34.1719,32.6025 L31.75,32.8681 L31.75,41.0713 L34.1719,41.3369 L34.1719,43.04 L27.0313,43.04 Z " fill="#000000"/><text fill="#000000" font-family="sans-serif" font-size="14" font-style="italic" lengthAdjust="spacing" textLength="44" x="45" y="41.972">System</text></g><!--class Terminal--><g id="elem_Terminal"><rect fill="#F1F1F1" height="32" id="Terminal" rx="3.5" ry="3.5" style="stroke:#181818;stroke-width:0.5;" width="92" x="7" y="307.27"/><ellipse cx="22" cy="323.27" fill="#ADD1B2" rx="11" ry="11" style="stroke:#181818;stroke-width:1.0;"/><path d="M21.4688,330.1919 Q19.7188,330.1919 18.5781,329.4575 Q17.4531,328.7075 16.8906,327.3638 Q16.3438,326.0044 16.3438,324.2075 Q16.3438,322.1763 17,320.7231 Q17.6563,319.27 18.9375,318.4888 Q20.2188,317.7075 22.0938,317.7075 Q22.9844,317.7075 23.6563,317.895 Q24.3281,318.0669 25.0156,318.4106 L24.2031,320.4263 Q23.5781,320.1138 23.0313,319.9888 Q22.5,319.8638 22.0156,319.8638 Q20.8438,319.8638 20.1406,320.395 Q19.4375,320.9263 19.1406,321.8794 Q18.8438,322.8325 18.8438,324.0981 Q18.8438,326.1138 19.5625,327.0825 Q20.2813,328.0356 21.875,328.0356 Q22.4688,328.0356 23.0938,327.8794 Q23.7188,327.7231 24.5469,327.3481 L24.5469,329.5669 Q23.8125,329.8794 23.0156,330.0356 Q22.2344,330.1919 21.4688,330.1919 Z " fill="#000000"/><text fill="#000000" font-family="sans-serif" font-size="14" lengthAdjust="spacing" textLength="60" x="36" y="328.702">Terminal</text></g><!--reverse link SystemHolder to Model--><g id="link_SystemHolder_Model"><path codeLine="25" d="M209.586,82.6833 C200.906,100.9833 197.44,108.29 188.75,126.61 " fill="none" id="SystemHolder-backto-Model" style="stroke:#454645;stroke-width:1.0;"/><polygon fill="none" points="217.3,66.42,204.1649,80.112,215.0071,85.2546,217.3,66.42" style="stroke:#454645;stroke-width:1.0;"/></g><!--reverse link SystemHolder to Controller--><g id="link_SystemHolder_Controller"><path codeLine="26" d="M275.5399,78.6254 C300.8499,101.9754 322.26,121.72 342.47,140.36 " fill="none" id="SystemHolder-backto-Controller" style="stroke:#454645;stroke-width:1.0;"/><polygon fill="none" points="262.31,66.42,271.4714,83.0353,279.6083,74.2154,262.31,66.42" style="stroke:#454645;stroke-width:1.0;"/></g><!--link Controller to View--><g id="link_Controller_View"><path codeLine="27" d="M359,173.1 C359,193.99 359,226.35 359,258.94 " fill="none" id="Controller-to-View" style="stroke:#454645;stroke-width:1.0;"/><polygon fill="#454645" points="359,264.94,363,255.94,359,259.94,355,255.94,359,264.94" style="stroke:#454645;stroke-width:1.0;"/><text fill="#000000" font-family="sans-serif" font-size="13" lengthAdjust="spacing" textLength="112" x="360" y="231.037">forwards events to</text></g><!--link SystemHolder to World--><g id="link_SystemHolder_World"><path codeLine="28" d="M335.3,36.54 C360.04,36.54 378.75,36.54 397.84,36.54 " fill="none" id="SystemHolder-to-World" style="stroke:#454645;stroke-width:1.0;"/><polygon fill="#454645" points="403.84,36.54,394.84,32.54,398.84,36.54,394.84,40.54,403.84,36.54" style="stroke:#454645;stroke-width:1.0;"/><text fill="#000000" font-family="sans-serif" font-size="13" lengthAdjust="spacing" textLength="33" x="353" y="29.437">binds</text></g><!--link System to SystemHolder--><g id="link_System_SystemHolder"><path codeLine="29" d="M92.37,36.54 C103.84,36.54 103.3,36.54 114.76,36.54 " fill="none" id="System-to-SystemHolder" style="stroke:#454645;stroke-width:1.0;"/><polygon fill="none" points="126.76,36.54,120.76,32.54,114.76,36.54,120.76,40.54,126.76,36.54" style="stroke:#454645;stroke-width:1.0;"/><text fill="#000000" font-family="sans-serif" font-size="13" lengthAdjust="spacing" textLength="7" x="100.0898" y="31.9349">*</text><text fill="#000000" font-family="sans-serif" font-size="13" lengthAdjust="spacing" textLength="7" x="111.8478" y="32.8392">1</text></g><!--link Terminal to View--><g id="link_Terminal_View"><path codeLine="30" d="M99.32,323.27 C110.73,323.27 104.14,323.27 115.55,323.27 " fill="none" id="Terminal-to-View" style="stroke:#454645;stroke-width:1.0;stroke-dasharray:7.0,7.0;"/><polygon fill="none" points="133.55,323.27,115.55,317.27,115.55,329.27,133.55,323.27" style="stroke:#454645;stroke-width:1.0;"/></g><!--SRC=[XP8nQyCm48Lt_OghfwJKWQwcT361BbsQaCvsz58B99sH51lJzBzNiGEnKvDgEN7ttTFfIG-XWW4rgdI53K8e6-0EnHwqwNo0UMCjuUXRK5obid98-oqlMdPQPlHv3alnC-vzPmazQbhRe8B2Frqvs-1OQxXnTgVGNgIgmagDJU2wXbmti661Z7hnRZaYFk2FvYwHn_05kOFcVIpTa4-49gCvPaOZPytkdi0LkBblxy5VouMOMFzoIjF1q9dyoBBhbjBqTR0jemExjd3Inu7Y09u2JrKYsOyHqVD3-KkLaiU4KgRaEPby1B65CyeMcbQduGmXAYL1C7NeoC2KS5xy0W00]--></g></svg>