<?xml version="1.0" encoding="us-ascii" standalone="no"?><svg xmlns="http://www.w3.org/2000/svg" xmlns:xlink="http://www.w3.org/1999/xlink" contentStyleType="text/css" height="389px" preserveAspectRatio="none" style="width:507px;height:389px;background:#FFFFFF;" version="1.1" viewBox="0 0 507 389" width="507px" zoomAndPan="magnify"><defs/><g><!--class component--><g id="elem_component"><rect codeLine="4" fill="#F1F1F1" height="32" id="component" rx="3.5" ry="3.5" style="stroke:#181818;stroke-width:0.5;" width="108" x="214.5" y="350.3"/><ellipse cx="229.5" cy="366.3" fill="#E3664A" rx="11" ry="11" style="stroke:#181818;stroke-width:1.0;"/><path d="M229.4375,373.8156 Q227.7344,373.8156 226.5156,373.05 Q225.2969,372.2844 224.6406,370.8781 Q224,369.4563 224,367.5031 Q224,365.9406 224.375,364.6125 Q224.75,363.2688 225.4531,362.2688 Q226.1719,361.2688 227.2031,360.7219 Q228.2344,360.1594 229.5469,360.1594 Q230.9375,360.1594 231.9844,360.9094 Q233.0313,361.6438 233.6094,362.9719 Q234.2031,364.3 234.2031,366.0969 Q234.2031,367.2688 233.9219,368.2688 Q233.6406,369.2531 233.0781,369.8625 Q232.5313,370.4563 231.7188,370.4563 Q231.1875,370.4563 230.8438,370.1906 Q230.5156,369.925 230.3281,369.4875 L230.2969,369.4875 Q230.0469,369.8625 229.6563,370.1594 Q229.2656,370.4563 228.6875,370.4563 Q227.7031,370.4563 227.1563,369.5656 Q226.625,368.6594 226.625,367.2219 Q226.625,366.1125 226.9531,365.2688 Q227.2813,364.425 227.8906,363.9406 Q228.5,363.4563 229.375,363.4563 Q229.9688,363.4563 230.5313,363.6125 Q231.1094,363.7531 231.5781,363.925 L231.4063,367.2688 Q231.3906,367.3938 231.3906,367.5188 Q231.3906,367.6438 231.3906,367.8 Q231.375,368.4719 231.4844,368.7219 Q231.6094,368.9563 231.8125,368.9563 Q232.1563,368.9563 232.3438,368.1438 Q232.5469,367.3156 232.5469,366.1281 Q232.5469,363.8313 231.6875,362.6906 Q230.8438,361.55 229.5469,361.55 Q228.3125,361.55 227.4375,362.3156 Q226.5781,363.0656 226.125,364.3938 Q225.6719,365.7063 225.6719,367.3938 Q225.6719,369.8 226.6406,371.1125 Q227.6094,372.4094 229.3594,372.4094 Q230.1563,372.4094 230.9531,372.2219 Q231.7656,372.0188 232.4375,371.7063 L232.4375,373.1281 Q231.8125,373.4563 231.0625,373.6281 Q230.3281,373.8156 229.4375,373.8156 Z M228.9063,368.9563 Q229.3594,368.9563 229.5469,368.3313 Q229.75,367.6906 229.7969,366.7531 L229.875,365.0656 Q229.6719,364.9719 229.4375,364.9719 Q228.9844,364.9719 228.7188,365.3156 Q228.4531,365.6438 228.3438,366.1594 Q228.2344,366.675 228.2344,367.2531 Q228.2344,368.1594 228.4063,368.5656 Q228.5781,368.9563 228.9063,368.9563 Z " fill="#000000"/><text fill="#000000" font-family="sans-serif" font-size="14" lengthAdjust="spacing" textLength="76" x="243.5" y="371.732">component</text></g><!--class Component--><g id="elem_Component"><rect codeLine="5" fill="#F1F1F1" height="32" id="Component" rx="3.5" ry="3.5" style="stroke:#181818;stroke-width:0.5;" width="104" x="396.5" y="146.18"/><ellipse cx="411.5" cy="162.18" fill="#B4A7E5" rx="11" ry="11" style="stroke:#181818;stroke-width:1.0;"/><path d="M407.5313,168.68 L407.5313,166.9769 L409.8906,166.7113 L409.8906,158.5081 L407.5313,158.2425 L407.5313,156.5394 L414.6719,156.5394 L414.6719,158.2425 L412.25,158.5081 L412.25,166.7113 L414.6719,166.9769 L414.6719,168.68 L407.5313,168.68 Z " fill="#000000"/><text fill="#000000" font-family="sans-serif" font-size="14" font-style="italic" lengthAdjust="spacing" textLength="72" x="425.5" y="167.612">Component</text></g><!--class ComponentType--><g id="elem_ComponentType"><rect codeLine="6" fill="#F1F1F1" height="32" id="ComponentType" rx="3.5" ry="3.5" style="stroke:#181818;stroke-width:0.5;" width="133" x="7" y="146.18"/><ellipse cx="22" cy="162.18" fill="#B4A7E5" rx="11" ry="11" style="stroke:#181818;stroke-width:1.0;"/><path d="M18.0313,168.68 L18.0313,166.9769 L20.3906,166.7113 L20.3906,158.5081 L18.0313,158.2425 L18.0313,156.5394 L25.1719,156.5394 L25.1719,158.2425 L22.75,158.5081 L22.75,166.7113 L25.1719,166.9769 L25.1719,168.68 L18.0313,168.68 Z " fill="#000000"/><text fill="#000000" font-family="sans-serif" font-size="14" font-style="italic" lengthAdjust="spacing" textLength="101" x="36" y="167.612">ComponentType</text></g><!--class WithType--><g id="elem_WithType"><rect codeLine="7" fill="#F1F1F1" height="72.4799" id="WithType" rx="3.5" ry="3.5" style="stroke:#181818;stroke-width:0.5;" width="90" x="215.5" y="7"/><ellipse cx="230.5" cy="29.706" fill="#B4A7E5" rx="11" ry="11" style="stroke:#181818;stroke-width:1.0;"/><path d="M226.5313,36.206 L226.5313,34.5029 L228.8906,34.2373 L228.8906,26.0341 L226.5313,25.7685 L226.5313,24.0654 L233.6719,24.0654 L233.6719,25.7685 L231.25,26.0341 L231.25,34.2373 L233.6719,34.5029 L233.6719,36.206 L226.5313,36.206 Z " fill="#000000"/><text fill="#000000" font-family="sans-serif" font-size="12" font-style="italic" lengthAdjust="spacing" textLength="46" x="250.5" y="24.8281">&#171;sealed&#187;</text><text fill="#000000" font-family="sans-serif" font-size="14" font-style="italic" lengthAdjust="spacing" textLength="58" x="244.5" y="43.31">WithType</text><line style="stroke:#181818;stroke-width:0.5;" x1="216.5" x2="304.5" y1="52.412" y2="52.412"/><text fill="#000000" font-family="sans-serif" font-size="14" lengthAdjust="spacing" textLength="70" x="221.5" y="71.378">typeId: Int</text></g><!--class C1--><g id="elem_C1"><rect codeLine="10" fill="#F1F1F1" height="32" id="C1" rx="3.5" ry="3.5" style="stroke:#181818;stroke-width:0.5;" width="49" x="322" y="251.59"/><ellipse cx="337" cy="267.59" fill="#ADD1B2" rx="11" ry="11" style="stroke:#181818;stroke-width:1.0;"/><path d="M336.4688,274.5119 Q334.7188,274.5119 333.5781,273.7775 Q332.4531,273.0275 331.8906,271.6838 Q331.3438,270.3244 331.3438,268.5275 Q331.3438,266.4963 332,265.0431 Q332.6563,263.59 333.9375,262.8088 Q335.2188,262.0275 337.0938,262.0275 Q337.9844,262.0275 338.6563,262.215 Q339.3281,262.3869 340.0156,262.7306 L339.2031,264.7463 Q338.5781,264.4338 338.0313,264.3088 Q337.5,264.1838 337.0156,264.1838 Q335.8438,264.1838 335.1406,264.715 Q334.4375,265.2463 334.1406,266.1994 Q333.8438,267.1525 333.8438,268.4181 Q333.8438,270.4338 334.5625,271.4025 Q335.2813,272.3556 336.875,272.3556 Q337.4688,272.3556 338.0938,272.1994 Q338.7188,272.0431 339.5469,271.6681 L339.5469,273.8869 Q338.8125,274.1994 338.0156,274.3556 Q337.2344,274.5119 336.4688,274.5119 Z " fill="#000000"/><text fill="#000000" font-family="sans-serif" font-size="14" lengthAdjust="spacing" textLength="17" x="351" y="273.022">C1</text></g><!--class $C1--><g id="elem_$C1"><rect codeLine="11" fill="#F1F1F1" height="45.412" id="$C1" rx="3.5" ry="3.5" style="stroke:#181818;stroke-width:0.5;" width="101" x="114" y="244.89"/><ellipse cx="129" cy="267.596" fill="#ADD1B2" rx="11" ry="11" style="stroke:#181818;stroke-width:1.0;"/><path d="M128.4688,274.5179 Q126.7188,274.5179 125.5781,273.7835 Q124.4531,273.0335 123.8906,271.6898 Q123.3438,270.3304 123.3438,268.5335 Q123.3438,266.5023 124,265.0491 Q124.6563,263.596 125.9375,262.8148 Q127.2188,262.0335 129.0938,262.0335 Q129.9844,262.0335 130.6563,262.221 Q131.3281,262.3929 132.0156,262.7366 L131.2031,264.7523 Q130.5781,264.4398 130.0313,264.3148 Q129.5,264.1898 129.0156,264.1898 Q127.8438,264.1898 127.1406,264.721 Q126.4375,265.2523 126.1406,266.2054 Q125.8438,267.1585 125.8438,268.4241 Q125.8438,270.4398 126.5625,271.4085 Q127.2813,272.3616 128.875,272.3616 Q129.4688,272.3616 130.0938,272.2054 Q130.7188,272.0491 131.5469,271.6741 L131.5469,273.8929 Q130.8125,274.2054 130.0156,274.3616 Q129.2344,274.5179 128.4688,274.5179 Z " fill="#000000"/><text fill="#000000" font-family="sans-serif" font-size="12" font-style="italic" lengthAdjust="spacing" textLength="73" x="141" y="262.7181">&#171;companion&#187;</text><text fill="#000000" font-family="sans-serif" font-size="14" lengthAdjust="spacing" textLength="25" x="165" y="281.2">$C1</text></g><g id="elem_N1"><path d="M175,142.98 L175,181.392 A3.5,3.5 0 0 0 178.5,184.892 L358.5,184.892 A3.5,3.5 0 0 0 362,181.392 L362,149.48 L352,139.48 L178.5,139.48 A3.5,3.5 0 0 0 175,142.98 " fill="#7FFFD4" style="stroke:#454645;stroke-width:1.5;"/><path d="M352,139.48 L352,147.73 A1.75,1.75 0 0 0 353.75,149.48 L362,149.48 L352,139.48 " fill="#7FFFD4" style="stroke:#454645;stroke-width:1.0;"/><text fill="#454645" font-family="sans-serif" font-size="13" lengthAdjust="spacing" textLength="120" x="181" y="158.377">Concrete classes are</text><text fill="#454645" font-family="sans-serif" font-size="13" lengthAdjust="spacing" textLength="166" x="181" y="176.083">annotated by @component</text></g><!--reverse link WithType to Component--><g id="link_WithType_Component"><path codeLine="13" d="M320.8143,81.7573 C357.8543,104.7973 393.69,127.09 423.71,145.76 " fill="none" id="WithType-backto-Component" style="stroke:#454645;stroke-width:1.0;"/><polygon fill="none" points="305.53,72.25,317.6452,86.8521,323.9834,76.6625,305.53,72.25" style="stroke:#454645;stroke-width:1.0;"/></g><!--reverse link WithType to ComponentType--><g id="link_WithType_ComponentType"><path codeLine="14" d="M199.9684,82.0937 C163.1084,105.1437 127.74,127.26 98.03,145.84 " fill="none" id="WithType-backto-ComponentType" style="stroke:#454645;stroke-width:1.0;"/><polygon fill="none" points="215.23,72.55,196.7871,77.0065,203.1496,87.1809,215.23,72.55" style="stroke:#454645;stroke-width:1.0;"/></g><!--reverse link C1 to component--><g id="link_C1_component"><path codeLine="16" d="M330.5439,288.3708 C315.9739,306.4408 295.5,331.82 280.86,349.98 " fill="none" id="C1-backto-component" style="stroke:#454645;stroke-width:1.0;"/><polygon fill="#454645" points="334.31,283.7,325.547,288.1955,331.1716,287.5923,331.7747,293.2169,334.31,283.7" style="stroke:#454645;stroke-width:1.0;"/></g><!--reverse link $C1 to component--><g id="link_$C1_component"><path codeLine="17" d="M192.7536,294.8661 C212.1836,312.9361 234.72,333.89 251.88,349.84 " fill="none" id="$C1-backto-component" style="stroke:#454645;stroke-width:1.0;"/><polygon fill="#454645" points="188.36,290.78,192.2264,299.8382,192.0213,294.1851,197.6745,293.9801,188.36,290.78" style="stroke:#454645;stroke-width:1.0;"/></g><!--reverse link Component to C1--><g id="link_Component_C1"><path codeLine="19" d="M420.8076,191.2528 C401.5176,210.8028 380.93,231.69 361.61,251.27 " fill="none" id="Component-backto-C1" style="stroke:#454645;stroke-width:1.0;stroke-dasharray:7.0,7.0;"/><polygon fill="none" points="433.45,178.44,416.5366,187.0387,425.0785,195.467,433.45,178.44" style="stroke:#454645;stroke-width:1.0;"/></g><!--reverse link ComponentType to $C1--><g id="link_ComponentType_$C1"><path codeLine="20" d="M98.8171,191.9565 C114.1371,209.3765 127.46,224.5 144.96,244.39 " fill="none" id="ComponentType-backto-$C1" style="stroke:#454645;stroke-width:1.0;stroke-dasharray:7.0,7.0;"/><polygon fill="none" points="86.93,178.44,94.3116,195.9189,103.3226,187.9942,86.93,178.44" style="stroke:#454645;stroke-width:1.0;"/></g><!--link N1 to C1--><g id="link_N1_C1"><path codeLine="24" d="M285.23,185.37 C300.18,205.19 321.7,233.72 334.85,251.15 " fill="none" id="N1-C1" style="stroke:#454645;stroke-width:1.0;stroke-dasharray:7.0,7.0;"/></g><!--link N1 to $C1--><g id="link_N1_$C1"><path codeLine="25" d="M246.19,185.37 C228.64,202.81 204.31,227.01 186.77,244.45 " fill="none" id="N1-$C1" style="stroke:#454645;stroke-width:1.0;stroke-dasharray:7.0,7.0;"/></g><!--link N1 to component--><g id="link_N1_component"><path codeLine="26" d="M268.5,185.2 C268.5,226.43 268.5,314.33 268.5,349.89 " fill="none" id="N1-component" style="stroke:#454645;stroke-width:1.0;stroke-dasharray:7.0,7.0;"/></g><!--SRC=[VP0nQyCm48Nt-nMlmMi2NaCm1KzPCXMoT3dRLoo8JaOI1PFcl_SS1yUbj9eU7xodJth9lNZ1fsiYQoPYrP0vkw1eWn-2Yb6dMU87juBwF_Os3hBYPvVx2U5mIC8NwQeALuATRFJOxN7K3BfHU-6KK9UFKDIbLQRRMSsZgeYUKr_RxKhY3tuNeMd6wFCPnIz2IyKMThl9uSV8JAr7PDyYsDH1soYMxggIm57UzV5fqg4PyRhCRy099-kUIipZSoYMj3BfNISGF-GHNdmZCT4t]--></g></svg>