<?xml version="1.0" encoding="us-ascii" standalone="no"?><svg xmlns="http://www.w3.org/2000/svg" xmlns:xlink="http://www.w3.org/1999/xlink" contentStyleType="text/css" height="737px" preserveAspectRatio="none" style="width:942px;height:737px;background:#FFFFFF;" version="1.1" viewBox="0 0 942 737" width="942px" zoomAndPan="magnify"><defs/><g><!--class World--><g id="elem_World"><rect codeLine="4" fill="#F1F1F1" height="216.6792" id="World" rx="3.5" ry="3.5" style="stroke:#181818;stroke-width:0.5;" width="373" x="169.5" y="7"/><text fill="#000000" font-family="sans-serif" font-size="14" font-style="italic" lengthAdjust="spacing" textLength="38" x="337" y="26.9659">World</text><line style="stroke:#181818;stroke-width:0.5;" x1="170.5" x2="541.5" y1="36.0679" y2="36.0679"/><text fill="#000000" font-family="sans-serif" font-size="14" lengthAdjust="spacing" textLength="154" x="175.5" y="55.0339">deltaSeconds: Seconds</text><line style="stroke:#181818;stroke-width:0.5;" x1="170.5" x2="541.5" y1="63.1358" y2="63.1358"/><text fill="#000000" font-family="sans-serif" font-size="14" lengthAdjust="spacing" textLength="246" x="175.5" y="82.1018">entity(components: Set[Component])</text><text fill="#000000" font-family="sans-serif" font-size="14" lengthAdjust="spacing" textLength="104" x="175.5" y="101.1697">delete(e: Entity)</text><text fill="#000000" font-family="sans-serif" font-size="14" lengthAdjust="spacing" textLength="305" x="175.5" y="120.2376">addComponents(e: Entity, c: Set[Component])</text><text fill="#000000" font-family="sans-serif" font-size="14" lengthAdjust="spacing" textLength="361" x="175.5" y="139.3055">removeComponents(e: Entity, c: Set[ComponentType])</text><text fill="#000000" font-family="sans-serif" font-size="14" lengthAdjust="spacing" textLength="191" x="175.5" y="158.3734">system(s: System, p: Priority)</text><text fill="#000000" font-family="sans-serif" font-size="14" lengthAdjust="spacing" textLength="145" x="175.5" y="177.4414">pause(system: String)</text><text fill="#000000" font-family="sans-serif" font-size="14" lengthAdjust="spacing" textLength="155" x="175.5" y="196.5093">resume(system: String)</text><text fill="#000000" font-family="sans-serif" font-size="14" lengthAdjust="spacing" textLength="114" x="175.5" y="215.5772">loop(t: LoopType)</text></g><!--class System--><g id="elem_System"><rect codeLine="16" fill="#F1F1F1" height="94.2717" id="System" rx="3.5" ry="3.5" style="stroke:#181818;stroke-width:0.5;" width="118" x="7" y="68.2"/><text fill="#000000" font-family="sans-serif" font-size="14" font-style="italic" lengthAdjust="spacing" textLength="44" x="44" y="88.1659">System</text><line style="stroke:#181818;stroke-width:0.5;" x1="8" x2="124" y1="97.2679" y2="97.2679"/><text fill="#000000" font-family="sans-serif" font-size="14" lengthAdjust="spacing" textLength="98" x="13" y="116.2339">onStart: Query</text><text fill="#000000" font-family="sans-serif" font-size="14" lengthAdjust="spacing" textLength="101" x="13" y="135.3018">process: Query</text><text fill="#000000" font-family="sans-serif" font-size="14" lengthAdjust="spacing" textLength="106" x="13" y="154.3697">onPause: Query</text></g><!--class Query--><g id="elem_Query"><rect codeLine="22" fill="#F1F1F1" height="94.2717" id="Query" rx="3.5" ry="3.5" style="stroke:#181818;stroke-width:0.5;" width="308" x="55" y="485.02"/><text fill="#000000" font-family="sans-serif" font-size="14" font-style="italic" lengthAdjust="spacing" textLength="38" x="190" y="504.9859">Query</text><line style="stroke:#181818;stroke-width:0.5;" x1="56" x2="362" y1="514.0879" y2="514.0879"/><text fill="#000000" font-family="sans-serif" font-size="14" lengthAdjust="spacing" textLength="196" x="61" y="533.0539">none(t: Set[ComponentType])</text><text fill="#000000" font-family="sans-serif" font-size="14" lengthAdjust="spacing" textLength="186" x="61" y="552.1218">any(t: Set[ComponentType])</text><text fill="#000000" font-family="sans-serif" font-size="14" lengthAdjust="spacing" textLength="296" x="61" y="571.1897">all(f: Function[Entity, Set[Component], Unit])</text></g><!--class Archetype--><g id="elem_Archetype"><rect codeLine="28" fill="#F1F1F1" height="121.3396" id="Archetype" rx="3.5" ry="3.5" style="stroke:#181818;stroke-width:0.5;" width="336" x="475" y="284.68"/><text fill="#000000" font-family="sans-serif" font-size="14" font-style="italic" lengthAdjust="spacing" textLength="62" x="612" y="304.6459">Archetype</text><line style="stroke:#181818;stroke-width:0.5;" x1="476" x2="810" y1="313.7479" y2="313.7479"/><text fill="#000000" font-family="sans-serif" font-size="14" lengthAdjust="spacing" textLength="214" x="481" y="332.7139">signature: Set[ComponentType]</text><line style="stroke:#181818;stroke-width:0.5;" x1="476" x2="810" y1="340.8158" y2="340.8158"/><text fill="#000000" font-family="sans-serif" font-size="14" lengthAdjust="spacing" textLength="258" x="481" y="359.7818">addEntity(e: Entity, c: Set[Component])</text><text fill="#000000" font-family="sans-serif" font-size="14" lengthAdjust="spacing" textLength="259" x="481" y="378.8497">deleteEntity(e: Entity): Set[Component]</text><text fill="#000000" font-family="sans-serif" font-size="14" lengthAdjust="spacing" textLength="324" x="481" y="397.9176">iterate(f: Function[Entity, Set[Component], Unit])</text></g><!--class ComponentType--><g id="elem_ComponentType"><rect codeLine="35" fill="#F1F1F1" height="72.4799" id="ComponentType" rx="3.5" ry="3.5" style="stroke:#181818;stroke-width:0.5;" width="125" x="254.5" y="658.29"/><text fill="#000000" font-family="sans-serif" font-size="12" font-style="italic" lengthAdjust="spacing" textLength="65" x="284.5" y="676.1181">&#171;metaclass&#187;</text><text fill="#000000" font-family="sans-serif" font-size="14" lengthAdjust="spacing" textLength="110" x="262" y="694.6">ComponentType</text><line style="stroke:#181818;stroke-width:0.5;" x1="255.5" x2="378.5" y1="703.702" y2="703.702"/><text fill="#000000" font-family="sans-serif" font-size="14" lengthAdjust="spacing" textLength="113" x="260.5" y="722.668">id: ComponentId</text></g><!--class Component--><g id="elem_Component"><rect codeLine="39" fill="#F1F1F1" height="29.0679" id="Component" rx="3.5" ry="3.5" style="stroke:#181818;stroke-width:0.5;" width="78" x="439" y="517.62"/><text fill="#000000" font-family="sans-serif" font-size="14" font-style="italic" lengthAdjust="spacing" textLength="72" x="442" y="537.5859">Component</text></g><!--class Entity--><g id="elem_Entity"><rect codeLine="41" fill="#F1F1F1" height="56.1358" id="Entity" rx="3.5" ry="3.5" style="stroke:#181818;stroke-width:0.5;" width="85" x="552.5" y="504.09"/><text fill="#000000" font-family="sans-serif" font-size="14" font-style="italic" lengthAdjust="spacing" textLength="36" x="577" y="524.0559">Entity</text><line style="stroke:#181818;stroke-width:0.5;" x1="553.5" x2="636.5" y1="533.1579" y2="533.1579"/><text fill="#000000" font-family="sans-serif" font-size="14" lengthAdjust="spacing" textLength="73" x="558.5" y="552.1239">id: EntityId</text></g><g id="elem_N1"><path d="M444.5,675.32 L444.5,713.732 A3.5,3.5 0 0 0 448,717.232 L626,717.232 A3.5,3.5 0 0 0 629.5,713.732 L629.5,681.82 L619.5,671.82 L448,671.82 A3.5,3.5 0 0 0 444.5,675.32 " fill="#7FFFD4" style="stroke:#454645;stroke-width:1.5;"/><path d="M619.5,671.82 L619.5,680.07 A1.75,1.75 0 0 0 621.25,681.82 L629.5,681.82 L619.5,671.82 " fill="#7FFFD4" style="stroke:#454645;stroke-width:1.0;"/><text fill="#454645" font-family="sans-serif" font-size="13" lengthAdjust="spacing" textLength="151" x="450.5" y="690.717">At most one instance of a</text><text fill="#454645" font-family="sans-serif" font-size="13" lengthAdjust="spacing" textLength="164" x="450.5" y="708.423">Component class per Entity</text></g><!--link System to World--><g id="link_System_World"><path codeLine="45" d="M125.47,115.34 C140.03,115.34 142.59,115.34 157.15,115.34 " fill="none" id="System-to-World" style="stroke:#454645;stroke-width:1.0;"/><polygon fill="none" points="169.15,115.34,163.15,111.34,157.15,115.34,163.15,119.34,169.15,115.34" style="stroke:#454645;stroke-width:1.0;"/><text fill="#000000" font-family="sans-serif" font-size="13" lengthAdjust="spacing" textLength="7" x="133.1445" y="111.2446">*</text><text fill="#000000" font-family="sans-serif" font-size="13" lengthAdjust="spacing" textLength="7" x="154.7145" y="111.9188">*</text></g><!--reverse link World to Query--><g id="link_World_Query"><path codeLine="46" d="M263.3025,228.9652 C250.8925,248.2452 242.95,263.83 235,284.68 C209.79,350.82 206.24,433.73 206.93,484.55 " fill="none" id="World-backto-Query" style="stroke:#454645;stroke-width:1.0;"/><polygon fill="#454645" points="266.55,223.92,258.3154,229.3228,263.8438,228.1243,265.0423,233.6528,266.55,223.92" style="stroke:#454645;stroke-width:1.0;"/><text fill="#000000" font-family="sans-serif" font-size="13" lengthAdjust="spacing" textLength="73" x="250.5" y="341.747">gets entities</text><text fill="#000000" font-family="sans-serif" font-size="13" lengthAdjust="spacing" textLength="102" x="236" y="359.453">and components</text></g><!--link World to Component--><g id="link_World_Component"><path codeLine="47" d="M346.44,224.07 C345.35,280.16 350.25,348.79 373,406.02 C391.86,453.46 431.5559,492.1436 456.1659,513.2536 " fill="none" id="World-to-Component" style="stroke:#454645;stroke-width:1.0;"/><polygon fill="#454645" points="460.72,517.16,456.4931,508.2643,456.9249,513.9046,451.2846,514.3364,460.72,517.16" style="stroke:#454645;stroke-width:1.0;"/><text fill="#000000" font-family="sans-serif" font-size="13" lengthAdjust="spacing" textLength="64" x="383" y="341.747">distributes</text><text fill="#000000" font-family="sans-serif" font-size="13" lengthAdjust="spacing" textLength="82" x="374" y="359.453">to archetypes</text></g><!--reverse link World to Archetype--><g id="link_World_Archetype"><path codeLine="48" d="M500.9142,231.4665 C527.0342,252.2265 544.12,265.79 567.47,284.35 " fill="none" id="World-backto-Archetype" style="stroke:#454645;stroke-width:1.0;"/><polygon fill="#454645" points="491.52,224,493.7283,230.8647,500.9142,231.4665,498.7059,224.6018,491.52,224" style="stroke:#454645;stroke-width:1.0;"/><text fill="#000000" font-family="sans-serif" font-size="13" lengthAdjust="spacing" textLength="7" x="492.9775" y="245.4252">1</text><text fill="#000000" font-family="sans-serif" font-size="13" lengthAdjust="spacing" textLength="7" x="550.8382" y="272.8197">*</text></g><!--link World to Entity--><g id="link_World_Entity"><path codeLine="49" d="M542.76,131.86 C645.27,151.02 764.37,193.07 829,284.68 C860.09,328.74 856.72,359.76 829,406.02 C787.44,475.37 698.7084,506.9849 643.3484,520.9249 " fill="none" id="World-to-Entity" style="stroke:#454645;stroke-width:1.0;"/><polygon fill="#454645" points="637.53,522.39,647.2343,524.0713,642.3786,521.1691,645.2808,516.3134,637.53,522.39" style="stroke:#454645;stroke-width:1.0;"/><text fill="#000000" font-family="sans-serif" font-size="13" lengthAdjust="spacing" textLength="64" x="861" y="341.747">distributes</text><text fill="#000000" font-family="sans-serif" font-size="13" lengthAdjust="spacing" textLength="82" x="852" y="359.453">to archetypes</text></g><!--link Query to ComponentType--><g id="link_Query_ComponentType"><path codeLine="50" d="M240.24,579.54 C257.06,604.52 274.1395,629.8727 289.6895,652.9727 " fill="none" id="Query-to-ComponentType" style="stroke:#454645;stroke-width:1.0;"/><polygon fill="#454645" points="293.04,657.95,291.3324,648.2503,290.2479,653.8022,284.696,652.7177,293.04,657.95" style="stroke:#454645;stroke-width:1.0;"/><text fill="#000000" font-family="sans-serif" font-size="13" lengthAdjust="spacing" textLength="33" x="274" y="624.187">filters</text></g><!--link Query to Component--><g id="link_Query_Component"><path codeLine="51" d="M363.14,532.15 C391.08,532.15 411.86,532.15 432.53,532.15 " fill="none" id="Query-to-Component" style="stroke:#454645;stroke-width:1.0;"/><polygon fill="#454645" points="438.53,532.15,429.53,528.15,433.53,532.15,429.53,536.15,438.53,532.15" style="stroke:#454645;stroke-width:1.0;"/><text fill="#000000" font-family="sans-serif" font-size="13" lengthAdjust="spacing" textLength="40" x="381" y="525.047">selects</text></g><!--link Query to Entity--><g id="link_Query_Entity"><path codeLine="52" d="M286.07,484.62 C339.22,457.74 411.62,432.73 476,450.46 C510.31,459.9 538.6483,480.0661 561.1083,499.6561 " fill="none" id="Query-to-Entity" style="stroke:#454645;stroke-width:1.0;"/><polygon fill="#454645" points="565.63,503.6,561.4767,494.6697,561.8619,500.3134,556.2182,500.6986,565.63,503.6" style="stroke:#454645;stroke-width:1.0;"/><text fill="#000000" font-family="sans-serif" font-size="13" lengthAdjust="spacing" textLength="40" x="435" y="450.917">selects</text></g><!--reverse link Archetype to Component--><g id="link_Archetype_Component"><path codeLine="53" d="M581.4386,415.302 C546.2486,454.722 511,494.19 490.25,517.43 " fill="none" id="Archetype-backto-Component" style="stroke:#454645;stroke-width:1.0;"/><polygon fill="none" points="589.43,406.35,582.4503,408.1622,581.4386,415.302,588.4183,413.4898,589.43,406.35" style="stroke:#454645;stroke-width:1.0;"/><text fill="#000000" font-family="sans-serif" font-size="13" lengthAdjust="spacing" textLength="7" x="576.188" y="427.8872">1</text><text fill="#000000" font-family="sans-serif" font-size="13" lengthAdjust="spacing" textLength="20" x="471.0797" y="505.8934">1..*</text></g><!--reverse link Archetype to Entity--><g id="link_Archetype_Entity"><path codeLine="54" d="M624.4,417.9638 C615.85,450.8438 608.71,478.38 602.06,503.95 " fill="none" id="Archetype-backto-Entity" style="stroke:#454645;stroke-width:1.0;"/><polygon fill="none" points="627.42,406.35,622.0387,411.1502,624.4,417.9638,629.7813,413.1636,627.42,406.35" style="stroke:#454645;stroke-width:1.0;"/><text fill="#000000" font-family="sans-serif" font-size="13" lengthAdjust="spacing" textLength="7" x="618.3331" y="427.8872">1</text><text fill="#000000" font-family="sans-serif" font-size="13" lengthAdjust="spacing" textLength="20" x="581.3801" y="492.4399">1..*</text></g><!--link Component to ComponentType--><g id="link_Component_ComponentType"><path codeLine="55" d="M463.99,547.11 C439.44,571.57 400.6416,610.2058 365.6016,645.1158 " fill="none" id="Component-to-ComponentType" style="stroke:#454645;stroke-width:1.0;"/><polygon fill="none" points="352.85,657.82,369.8363,649.3663,361.3668,640.8652,352.85,657.82" style="stroke:#454645;stroke-width:1.0;"/></g><!--link System to Query--><g id="link_System_Query"><path codeLine="56" d="M59.15,162.88 C52.55,222.19 48.18,326.55 84,406.02 C97.69,436.39 117.7509,459.5078 141.4809,480.6578 " fill="none" id="System-to-Query" style="stroke:#454645;stroke-width:1.0;"/><polygon fill="#454645" points="145.96,484.65,141.9027,475.6757,142.2274,481.3232,136.5799,481.6479,145.96,484.65" style="stroke:#454645;stroke-width:1.0;"/><text fill="#000000" font-family="sans-serif" font-size="13" lengthAdjust="spacing" textLength="53" x="85" y="350.747">executes</text></g><!--link Component to N1--><g id="link_Component_N1"><path codeLine="59" d="M483.13,547.11 C493.39,575 516.51,637.84 528.86,671.41 " fill="none" id="Component-N1" style="stroke:#454645;stroke-width:1.0;stroke-dasharray:7.0,7.0;"/></g><!--link Entity to N1--><g id="link_Entity_N1"><path codeLine="60" d="M585.16,560.36 C573.85,591.64 555.5,642.38 545.02,671.36 " fill="none" id="Entity-N1" style="stroke:#454645;stroke-width:1.0;stroke-dasharray:7.0,7.0;"/></g><!--SRC=[bLDBQzj04BxhLqnraeDby5KOGoWj1499IKiFIG_hrTXUa7R5xYXKjFtltQSUnWcfBgkTr_VDDxCVw8mjmeiuQ2OfouGar4V64NuetTJmEmFxrTWGUqIkP6qgY3_UWv843GLNRQUalNWtFNrCzv-hL0092wpWaqy8LbRNOw2Pd6lWrwjeRDKBlY_bsz1XJ3E38MmBHyt_hQ6hu44BfKSc7UiD5Y7GXf4MyfGmJTzUTpLATGLLS6zF1xVA_iu5361HGIKVYMaR_BL7FGHChJWQCpSf-U289DEYd3V5QjAsw91VwvZ9uKrtqnJ72ZxtafDGyYbfkDHy3T-bSD8lQDngVaQojI8L8qwIKQ_n6boQSW1unuJ3dbo6how3VQomb9XTgl_hX3VC65ZGXDskHMBUiz_7laHTJL5tzLA4qJ4t1knPUZ24tBWC-KqEfVA7VrzPU6MxiepphU24PCAp4cYU9PCrJAyhnfVbVk9WSsfXx5uUUd8Pf82b8QM4V9l3ZGLnmEC4PyKYzpSh1O8BQAzU1KVHM176Y2KtOqVAQUOSiP9dMYb7KpcQsyt6CfraVZKa5CicmBBySq4mQM-XayRu2xbhCSka8blpbg1LXkpxGn3I49Dsdke8x5bEbSFcTAWZQ0xCm9Vj37kpSVVONxXaPr4ZODjPIuljmSdaJTFUSA5vWy4QCABb7m00]--></g></svg>