<?xml version="1.0" encoding="us-ascii" standalone="no"?><svg xmlns="http://www.w3.org/2000/svg" xmlns:xlink="http://www.w3.org/1999/xlink" contentStyleType="text/css" height="848px" preserveAspectRatio="none" style="width:727px;height:848px;background:#FFFFFF;" version="1.1" viewBox="0 0 727 848" width="727px" zoomAndPan="magnify"><defs/><g><!--class Archetype--><g id="elem_Archetype"><rect codeLine="4" fill="#F1F1F1" height="175.8195" id="Archetype" rx="3.5" ry="3.5" style="stroke:#181818;stroke-width:0.5;" width="325" x="36.5" y="254.88"/><text fill="#000000" font-family="sans-serif" font-size="12" font-style="italic" lengthAdjust="spacing" textLength="59" x="169.5" y="272.7081">&#171;interface&#187;</text><text fill="#000000" font-family="sans-serif" font-size="14" font-style="italic" lengthAdjust="spacing" textLength="62" x="168" y="291.19">Archetype</text><line style="stroke:#181818;stroke-width:0.5;" x1="37.5" x2="360.5" y1="300.292" y2="300.292"/><text fill="#000000" font-family="sans-serif" font-size="14" lengthAdjust="spacing" textLength="139" x="42.5" y="319.258">signature: Signature</text><line style="stroke:#181818;stroke-width:0.5;" x1="37.5" x2="360.5" y1="327.3599" y2="327.3599"/><text fill="#000000" font-family="sans-serif" font-size="14" lengthAdjust="spacing" textLength="222" x="42.5" y="346.3259">add(e: Entity, c: List[Component])</text><text fill="#000000" font-family="sans-serif" font-size="14" lengthAdjust="spacing" textLength="231" x="42.5" y="365.3938">remove(e: Entity): List[Component]</text><text fill="#000000" font-family="sans-serif" font-size="14" lengthAdjust="spacing" textLength="211" x="42.5" y="384.4617">update(e: Entity, c: Component)</text><text fill="#000000" font-family="sans-serif" font-size="14" lengthAdjust="spacing" textLength="156" x="42.5" y="403.5296">contains(e: Entity): Bool</text><text fill="#000000" font-family="sans-serif" font-size="14" lengthAdjust="spacing" textLength="313" x="42.5" y="422.5976">iterate(f: (e: Entity, c: List[Component]) =&gt; Unit)</text></g><!--class Aggregate--><g id="elem_Aggregate"><rect codeLine="13" fill="#F1F1F1" height="72.4799" id="Aggregate" rx="3.5" ry="3.5" style="stroke:#181818;stroke-width:0.5;" width="186" x="232" y="491.7"/><text fill="#000000" font-family="sans-serif" font-size="12" font-style="italic" lengthAdjust="spacing" textLength="59" x="295.5" y="509.5281">&#171;interface&#187;</text><text fill="#000000" font-family="sans-serif" font-size="14" font-style="italic" lengthAdjust="spacing" textLength="65" x="292.5" y="528.01">Aggregate</text><line style="stroke:#181818;stroke-width:0.5;" x1="233" x2="417" y1="537.112" y2="537.112"/><text fill="#000000" font-family="sans-serif" font-size="14" lengthAdjust="spacing" textLength="174" x="238" y="556.078">fragments: Set[Fragment]</text></g><!--class Fragment--><g id="elem_Fragment"><rect codeLine="17" fill="#F1F1F1" height="110.6158" id="Fragment" rx="3.5" ry="3.5" style="stroke:#181818;stroke-width:0.5;" width="131" x="133.5" y="625.18"/><text fill="#000000" font-family="sans-serif" font-size="12" font-style="italic" lengthAdjust="spacing" textLength="59" x="169.5" y="643.0081">&#171;interface&#187;</text><text fill="#000000" font-family="sans-serif" font-size="14" font-style="italic" lengthAdjust="spacing" textLength="61" x="168.5" y="661.49">Fragment</text><line style="stroke:#181818;stroke-width:0.5;" x1="134.5" x2="263.5" y1="670.592" y2="670.592"/><rect fill="none" height="6" style="stroke:#C82930;stroke-width:1.0;" width="6" x="141.5" y="682.626"/><text fill="#000000" font-family="sans-serif" font-size="14" lengthAdjust="spacing" textLength="105" x="153.5" y="689.558">maxEntities: Int</text><text fill="#000000" font-family="sans-serif" font-size="14" lengthAdjust="spacing" textLength="72" x="153.5" y="708.6259">isFull: Bool</text><text fill="#000000" font-family="sans-serif" font-size="14" lengthAdjust="spacing" textLength="90" x="153.5" y="727.6938">isEmpty: Bool</text></g><!--class ArchetypeManager--><g id="elem_ArchetypeManager"><rect codeLine="23" fill="#F1F1F1" height="186.8874" id="ArchetypeManager" rx="3.5" ry="3.5" style="stroke:#181818;stroke-width:0.5;" width="384" x="7" y="7"/><text fill="#000000" font-family="sans-serif" font-size="12" font-style="italic" lengthAdjust="spacing" textLength="59" x="169.5" y="24.8281">&#171;interface&#187;</text><text fill="#000000" font-family="sans-serif" font-size="14" font-style="italic" lengthAdjust="spacing" textLength="119" x="139.5" y="43.31">ArchetypeManager</text><line style="stroke:#181818;stroke-width:0.5;" x1="8" x2="390" y1="52.412" y2="52.412"/><text fill="#000000" font-family="sans-serif" font-size="14" lengthAdjust="spacing" textLength="260" x="13" y="71.378">addEntity(e: Entity, c: List[Component])</text><text fill="#000000" font-family="sans-serif" font-size="14" lengthAdjust="spacing" textLength="104" x="13" y="90.4459">delete(e: Entity)</text><text fill="#000000" font-family="sans-serif" font-size="14" lengthAdjust="spacing" textLength="307" x="13" y="109.5138">addComponents(e: Entity, c: List[Component])</text><text fill="#000000" font-family="sans-serif" font-size="14" lengthAdjust="spacing" textLength="331" x="13" y="128.5817">removeComponents(e: Entity, c: List[Component])</text><text fill="#000000" font-family="sans-serif" font-size="14" lengthAdjust="spacing" textLength="372" x="13" y="147.6496">hasComponents(e: Entity, t: List[ComponentType]): Bool</text><text fill="#000000" font-family="sans-serif" font-size="14" lengthAdjust="spacing" textLength="211" x="13" y="166.7176">update(e: Entity, c: Component)</text><text fill="#000000" font-family="sans-serif" font-size="14" lengthAdjust="spacing" textLength="313" x="13" y="185.7855">iterate(f: (e: Entity, c: List[Component]) =&gt; Unit)</text></g><!--class Signature--><g id="elem_Signature"><rect codeLine="33" fill="#F1F1F1" height="72.4799" id="Signature" rx="3.5" ry="3.5" style="stroke:#181818;stroke-width:0.5;" width="249" x="471.5" y="306.55"/><text fill="#000000" font-family="sans-serif" font-size="12" font-style="italic" lengthAdjust="spacing" textLength="59" x="566.5" y="324.3781">&#171;interface&#187;</text><text fill="#000000" font-family="sans-serif" font-size="14" font-style="italic" lengthAdjust="spacing" textLength="61" x="565.5" y="342.86">Signature</text><line style="stroke:#181818;stroke-width:0.5;" x1="472.5" x2="719.5" y1="351.962" y2="351.962"/><rect fill="none" height="6" style="stroke:#C82930;stroke-width:1.0;" width="6" x="479.5" y="363.996"/><text fill="#000000" font-family="sans-serif" font-size="14" lengthAdjust="spacing" textLength="223" x="491.5" y="370.928">underlying: Set[ComponentType]</text></g><!--class Entity--><g id="elem_Entity"><rect codeLine="37" fill="#F1F1F1" height="45.412" id="Entity" rx="3.5" ry="3.5" style="stroke:#181818;stroke-width:0.5;" width="61" x="116.5" y="796.8"/><text fill="#000000" font-family="sans-serif" font-size="12" font-style="italic" lengthAdjust="spacing" textLength="59" x="117.5" y="814.6281">&#171;interface&#187;</text><text fill="#000000" font-family="sans-serif" font-size="14" font-style="italic" lengthAdjust="spacing" textLength="36" x="129" y="833.11">Entity</text></g><!--class Component--><g id="elem_Component"><rect codeLine="38" fill="#F1F1F1" height="45.412" id="Component" rx="3.5" ry="3.5" style="stroke:#181818;stroke-width:0.5;" width="78" x="212" y="796.8"/><text fill="#000000" font-family="sans-serif" font-size="12" font-style="italic" lengthAdjust="spacing" textLength="59" x="221.5" y="814.6281">&#171;interface&#187;</text><text fill="#000000" font-family="sans-serif" font-size="14" font-style="italic" lengthAdjust="spacing" textLength="72" x="215" y="833.11">Component</text></g><g id="elem_N1"><path d="M299,661.28 L299,676.49 L264.82,680.49 L299,684.49 L299,699.692 A3.5,3.5 0 0 0 302.5,703.192 L501.5,703.192 A3.5,3.5 0 0 0 505,699.692 L505,667.78 L495,657.78 L302.5,657.78 A3.5,3.5 0 0 0 299,661.28 " fill="#7FFFD4" style="stroke:#454645;stroke-width:1.5;"/><path d="M495,657.78 L495,666.03 A1.75,1.75 0 0 0 496.75,667.78 L505,667.78 L495,657.78 " fill="#7FFFD4" style="stroke:#454645;stroke-width:1.5;"/><text fill="#454645" font-family="sans-serif" font-size="13" lengthAdjust="spacing" textLength="185" x="305" y="676.677">Fragments share the Signature</text><text fill="#454645" font-family="sans-serif" font-size="13" lengthAdjust="spacing" textLength="109" x="305" y="694.383">of their Aggregate</text></g><!--reverse link ArchetypeManager to Archetype--><g id="link_ArchetypeManager_Archetype"><path codeLine="40" d="M199,206.37 C199,226.18 199,235.04 199,254.63 " fill="none" id="ArchetypeManager-backto-Archetype" style="stroke:#454645;stroke-width:1.0;"/><polygon fill="#454645" points="199,194.37,195,200.37,199,206.37,203,200.37,199,194.37" style="stroke:#454645;stroke-width:1.0;"/><text fill="#000000" font-family="sans-serif" font-size="13" lengthAdjust="spacing" textLength="7" x="191.743" y="215.8149">1</text><text fill="#000000" font-family="sans-serif" font-size="13" lengthAdjust="spacing" textLength="7" x="191.6883" y="242.9497">*</text></g><!--reverse link Archetype to Aggregate--><g id="link_Archetype_Aggregate"><path codeLine="41" d="M269.2513,445.9101 C283.9513,467.2801 288.67,474.14 300.59,491.47 " fill="none" id="Archetype-backto-Aggregate" style="stroke:#454645;stroke-width:1.0;"/><polygon fill="none" points="259.05,431.08,264.308,449.3106,274.1947,442.5097,259.05,431.08" style="stroke:#454645;stroke-width:1.0;"/></g><!--reverse link Archetype to Fragment--><g id="link_Archetype_Fragment"><path codeLine="42" d="M199,449.12 C199,510.41 199,572.47 199,624.9 " fill="none" id="Archetype-backto-Fragment" style="stroke:#454645;stroke-width:1.0;"/><polygon fill="none" points="199,431.12,193,449.12,205,449.12,199,431.12" style="stroke:#454645;stroke-width:1.0;"/></g><!--link Archetype to Signature--><g id="link_Archetype_Signature"><path codeLine="43" d="M361.91,342.79 C398.39,342.79 430.54,342.79 465.19,342.79 " fill="none" id="Archetype-to-Signature" style="stroke:#454645;stroke-width:1.0;"/><polygon fill="#454645" points="471.19,342.79,462.19,338.79,466.19,342.79,462.19,346.79,471.19,342.79" style="stroke:#454645;stroke-width:1.0;"/><text fill="#000000" font-family="sans-serif" font-size="13" lengthAdjust="spacing" textLength="74" x="379.5" y="335.687">identified by</text></g><!--reverse link Aggregate to Fragment--><g id="link_Aggregate_Fragment"><path codeLine="44" d="M287.4397,573.8235 C272.3797,591.8235 261.48,604.84 244.67,624.93 " fill="none" id="Aggregate-backto-Fragment" style="stroke:#454645;stroke-width:1.0;"/><polygon fill="#454645" points="295.14,564.62,288.222,566.655,287.4397,573.8235,294.3577,571.7885,295.14,564.62" style="stroke:#454645;stroke-width:1.0;"/><text fill="#000000" font-family="sans-serif" font-size="13" lengthAdjust="spacing" textLength="7" x="282.6147" y="586.0584">1</text><text fill="#000000" font-family="sans-serif" font-size="13" lengthAdjust="spacing" textLength="20" x="229.4632" y="613.2667">1..*</text></g><!--reverse link Fragment to Entity--><g id="link_Fragment_Entity"><path codeLine="45" d="M174.043,747.2595 C166.003,768.4495 161.51,780.28 155.31,796.62 " fill="none" id="Fragment-backto-Entity" style="stroke:#454645;stroke-width:1.0;"/><polygon fill="none" points="178.3,736.04,172.4317,740.2308,174.043,747.2595,179.9114,743.0688,178.3,736.04" style="stroke:#454645;stroke-width:1.0;"/><text fill="#000000" font-family="sans-serif" font-size="13" lengthAdjust="spacing" textLength="7" x="168.3506" y="757.7864">1</text><text fill="#000000" font-family="sans-serif" font-size="13" lengthAdjust="spacing" textLength="20" x="134.8558" y="785.1769">1..*</text></g><!--reverse link Fragment to Component--><g id="link_Fragment_Component"><path codeLine="46" d="M223.957,747.2595 C231.997,768.4495 236.49,780.28 242.69,796.62 " fill="none" id="Fragment-backto-Component" style="stroke:#454645;stroke-width:1.0;"/><polygon fill="none" points="219.7,736.04,218.0886,743.0688,223.957,747.2595,225.5683,740.2308,219.7,736.04" style="stroke:#454645;stroke-width:1.0;"/><text fill="#000000" font-family="sans-serif" font-size="13" lengthAdjust="spacing" textLength="7" x="214.7963" y="757.7864">1</text><text fill="#000000" font-family="sans-serif" font-size="13" lengthAdjust="spacing" textLength="20" x="217.7692" y="785.1769">1..*</text></g><!--SRC=[fLJ1JiCm3BtdAqnFR6AJTft6942RX0HSWDFO8MlTDbARL4awKS7-7PTkIRiL3SIjiP-V_VASNjWKSuIjs6WkBMD2MjGn3n5kT9YYhGg4sSn5vtFuO01699BRKkCKdW-V5EPHT4cXXRJ2LbSGJk516BkwKtcX94gx7X18Owwsw7634nI1oYBY5e_87AAc2PMqN4ZJ8RfLAgESe6dhydWAP-Q1wpcyIa6Ckuxs9D6O44MFzbZp9ATYGzhHhfRxuxhBS0Zt48no_luzaa3YkATRfudDiimoBy0iyi9M-_EkrvP7Bdc2kgS1sT18Fcz6X1csxtdGb3kG-QsVVwb8kUc7ssFu2-bSUr_FRyM_dNVht6TSAIFKMILaqdZVdRDBrBJkihJIhlG8mKxy3IO134SZ28Q1Dv-rNkSd9Tt27YSEUzYAZ-OjbLCG4QL5B322JSNyvhk-a_6OMZiYjzarG7b08_Z7j1FCc5Gr_G5emAIS9g4VaP_hJQguZWZjfGN03JnDV8TnVM8f2G2idmlac6zGcoRaxpeKEioGVG40]--></g></svg>