<?xml version="1.0" encoding="us-ascii" standalone="no"?><svg xmlns="http://www.w3.org/2000/svg" xmlns:xlink="http://www.w3.org/1999/xlink" contentStyleType="text/css" height="488px" preserveAspectRatio="none" style="width:702px;height:488px;background:#FFFFFF;" version="1.1" viewBox="0 0 702 488" width="702px" zoomAndPan="magnify"><defs/><g><!--class World--><g id="elem_World"><rect codeLine="4" fill="#F1F1F1" height="59.0679" id="World" rx="3.5" ry="3.5" style="stroke:#181818;stroke-width:0.5;" width="125" x="439.5" y="154.6"/><ellipse cx="479.25" cy="170.6" fill="#B4A7E5" rx="11" ry="11" style="stroke:#181818;stroke-width:1.0;"/><path d="M475.2813,177.1 L475.2813,175.3969 L477.6406,175.1312 L477.6406,166.9281 L475.2813,166.6625 L475.2813,164.9594 L482.4219,164.9594 L482.4219,166.6625 L480,166.9281 L480,175.1312 L482.4219,175.3969 L482.4219,177.1 L475.2813,177.1 Z " fill="#000000"/><text fill="#000000" font-family="sans-serif" font-size="14" font-style="italic" lengthAdjust="spacing" textLength="38" x="498.75" y="176.032">World</text><line style="stroke:#181818;stroke-width:0.5;" x1="440.5" x2="563.5" y1="186.6" y2="186.6"/><text fill="#000000" font-family="sans-serif" font-size="14" lengthAdjust="spacing" textLength="113" x="445.5" y="205.5659">loop(l: LoopType)</text></g><!--class MetaContext--><g id="elem_MetaContext"><rect codeLine="8" fill="#F1F1F1" height="86.1358" id="MetaContext" rx="3.5" ry="3.5" style="stroke:#181818;stroke-width:0.5;" width="176" x="453" y="302.2"/><ellipse cx="496.8" cy="318.2" fill="#B4A7E5" rx="11" ry="11" style="stroke:#181818;stroke-width:1.0;"/><path d="M492.8313,324.7 L492.8313,322.9969 L495.1906,322.7313 L495.1906,314.5281 L492.8313,314.2625 L492.8313,312.5594 L499.9719,312.5594 L499.9719,314.2625 L497.55,314.5281 L497.55,322.7313 L499.9719,322.9969 L499.9719,324.7 L492.8313,324.7 Z " fill="#000000"/><text fill="#000000" font-family="sans-serif" font-size="14" font-style="italic" lengthAdjust="spacing" textLength="80" x="517.2" y="323.632">MetaContext</text><line style="stroke:#181818;stroke-width:0.5;" x1="454" x2="628" y1="334.2" y2="334.2"/><text fill="#000000" font-family="sans-serif" font-size="14" lengthAdjust="spacing" textLength="107" x="459" y="353.1659">deltaTime: Float</text><line style="stroke:#181818;stroke-width:0.5;" x1="454" x2="628" y1="361.2679" y2="361.2679"/><rect fill="#F24D5C" height="6" style="stroke:#C82930;stroke-width:1.0;" width="6" x="461" y="373.3019"/><text fill="#000000" font-family="sans-serif" font-size="14" lengthAdjust="spacing" textLength="150" x="473" y="380.2339">setDeltaTime(dt: Float)</text></g><!--class Mutator--><g id="elem_Mutator"><rect codeLine="12" fill="#F1F1F1" height="32" id="Mutator" rx="3.5" ry="3.5" style="stroke:#181818;stroke-width:0.5;" width="84" x="282" y="168.14"/><ellipse cx="297" cy="184.14" fill="#B4A7E5" rx="11" ry="11" style="stroke:#181818;stroke-width:1.0;"/><path d="M293.0313,190.64 L293.0313,188.9369 L295.3906,188.6713 L295.3906,180.4681 L293.0313,180.2025 L293.0313,178.4994 L300.1719,178.4994 L300.1719,180.2025 L297.75,180.4681 L297.75,188.6713 L300.1719,188.9369 L300.1719,190.64 L293.0313,190.64 Z " fill="#000000"/><text fill="#000000" font-family="sans-serif" font-size="14" font-style="italic" lengthAdjust="spacing" textLength="52" x="311" y="189.572">Mutator</text></g><!--class FramePacer--><g id="elem_FramePacer"><rect codeLine="14" fill="#F1F1F1" height="59.0679" id="FramePacer" rx="3.5" ry="3.5" style="stroke:#181818;stroke-width:0.5;" width="165" x="50.5" y="154.6"/><ellipse cx="91.6" cy="170.6" fill="#B4A7E5" rx="11" ry="11" style="stroke:#181818;stroke-width:1.0;"/><path d="M87.6313,177.1 L87.6313,175.3969 L89.9906,175.1312 L89.9906,166.9281 L87.6313,166.6625 L87.6313,164.9594 L94.7719,164.9594 L94.7719,166.6625 L92.35,166.9281 L92.35,175.1312 L94.7719,175.3969 L94.7719,177.1 L87.6313,177.1 Z " fill="#000000"/><text fill="#000000" font-family="sans-serif" font-size="14" font-style="italic" lengthAdjust="spacing" textLength="75" x="111.4" y="176.032">FramePacer</text><line style="stroke:#181818;stroke-width:0.5;" x1="51.5" x2="214.5" y1="186.6" y2="186.6"/><text fill="#000000" font-family="sans-serif" font-size="14" lengthAdjust="spacing" textLength="153" x="56.5" y="205.5659">pace(f: () =&gt; Unit): Float</text></g><!--class FramePacerImpl--><g id="elem_FramePacerImpl"><rect codeLine="18" fill="#F1F1F1" height="59.0679" id="FramePacerImpl" rx="3.5" ry="3.5" style="stroke:#181818;stroke-width:0.5;" width="188" x="7" y="315.74"/><ellipse cx="42.7" cy="331.74" fill="#ADD1B2" rx="11" ry="11" style="stroke:#181818;stroke-width:1.0;"/><path d="M42.1688,338.6619 Q40.4188,338.6619 39.2781,337.9275 Q38.1531,337.1775 37.5906,335.8337 Q37.0438,334.4744 37.0438,332.6775 Q37.0438,330.6462 37.7,329.1931 Q38.3563,327.74 39.6375,326.9587 Q40.9188,326.1775 42.7938,326.1775 Q43.6844,326.1775 44.3563,326.365 Q45.0281,326.5369 45.7156,326.8806 L44.9031,328.8962 Q44.2781,328.5837 43.7313,328.4587 Q43.2,328.3337 42.7156,328.3337 Q41.5438,328.3337 40.8406,328.865 Q40.1375,329.3962 39.8406,330.3494 Q39.5438,331.3025 39.5438,332.5681 Q39.5438,334.5837 40.2625,335.5525 Q40.9813,336.5056 42.575,336.5056 Q43.1688,336.5056 43.7938,336.3494 Q44.4188,336.1931 45.2469,335.8181 L45.2469,338.0369 Q44.5125,338.3494 43.7156,338.5056 Q42.9344,338.6619 42.1688,338.6619 Z " fill="#000000"/><text fill="#000000" font-family="sans-serif" font-size="14" lengthAdjust="spacing" textLength="110" x="61.3" y="337.172">FramePacerImpl</text><line style="stroke:#181818;stroke-width:0.5;" x1="8" x2="194" y1="347.74" y2="347.74"/><rect fill="none" height="6" style="stroke:#C82930;stroke-width:1.0;" width="6" x="15" y="359.774"/><text fill="#000000" font-family="sans-serif" font-size="14" lengthAdjust="spacing" textLength="162" x="27" y="366.7059">iterationsPerSecond: Int</text></g><!--class WorldImpl--><g id="elem_WorldImpl"><rect codeLine="22" fill="#F1F1F1" height="59.0679" id="WorldImpl" rx="3.5" ry="3.5" style="stroke:#181818;stroke-width:0.5;" width="188" x="230" y="315.74"/><ellipse cx="284.25" cy="331.74" fill="#ADD1B2" rx="11" ry="11" style="stroke:#181818;stroke-width:1.0;"/><path d="M283.7188,338.6619 Q281.9688,338.6619 280.8281,337.9275 Q279.7031,337.1775 279.1406,335.8337 Q278.5938,334.4744 278.5938,332.6775 Q278.5938,330.6462 279.25,329.1931 Q279.9063,327.74 281.1875,326.9587 Q282.4688,326.1775 284.3438,326.1775 Q285.2344,326.1775 285.9063,326.365 Q286.5781,326.5369 287.2656,326.8806 L286.4531,328.8962 Q285.8281,328.5837 285.2813,328.4587 Q284.75,328.3337 284.2656,328.3337 Q283.0938,328.3337 282.3906,328.865 Q281.6875,329.3962 281.3906,330.3494 Q281.0938,331.3025 281.0938,332.5681 Q281.0938,334.5837 281.8125,335.5525 Q282.5313,336.5056 284.125,336.5056 Q284.7188,336.5056 285.3438,336.3494 Q285.9688,336.1931 286.7969,335.8181 L286.7969,338.0369 Q286.0625,338.3494 285.2656,338.5056 Q284.4844,338.6619 283.7188,338.6619 Z " fill="#000000"/><text fill="#000000" font-family="sans-serif" font-size="14" lengthAdjust="spacing" textLength="71" x="304.75" y="337.172">WorldImpl</text><line style="stroke:#181818;stroke-width:0.5;" x1="231" x2="417" y1="347.74" y2="347.74"/><rect fill="none" height="6" style="stroke:#C82930;stroke-width:1.0;" width="6" x="238" y="359.774"/><text fill="#000000" font-family="sans-serif" font-size="14" lengthAdjust="spacing" textLength="162" x="250" y="366.7059">iterationsPerSecond: Int</text></g><!--class WorldFactory--><g id="elem_WorldFactory"><rect codeLine="26" fill="#F1F1F1" height="59.0679" id="WorldFactory" rx="3.5" ry="3.5" style="stroke:#181818;stroke-width:0.5;" width="272" x="366" y="7"/><ellipse cx="455.25" cy="23" fill="#B4A7E5" rx="11" ry="11" style="stroke:#181818;stroke-width:1.0;"/><path d="M451.2813,29.5 L451.2813,27.7969 L453.6406,27.5313 L453.6406,19.3281 L451.2813,19.0625 L451.2813,17.3594 L458.4219,17.3594 L458.4219,19.0625 L456,19.3281 L456,27.5313 L458.4219,27.7969 L458.4219,29.5 L451.2813,29.5 Z " fill="#000000"/><text fill="#000000" font-family="sans-serif" font-size="14" font-style="italic" lengthAdjust="spacing" textLength="85" x="475.75" y="28.432">WorldFactory</text><line style="stroke:#181818;stroke-width:0.5;" x1="367" x2="637" y1="39" y2="39"/><text fill="#000000" font-family="sans-serif" font-size="14" lengthAdjust="spacing" textLength="260" x="372" y="57.9659">create(iterationsPerSecond: Int): World</text></g><!--class LoopType--><g id="elem_LoopType"><rect codeLine="30" fill="#F1F1F1" height="78.1358" id="LoopType" rx="3.5" ry="3.5" style="stroke:#181818;stroke-width:0.5;" width="96" x="599" y="145.07"/><ellipse cx="614" cy="161.07" fill="#EB937F" rx="11" ry="11" style="stroke:#181818;stroke-width:1.0;"/><path d="M610.3594,167.57 L610.3594,155.4294 L618.0156,155.4294 L618.0156,157.5544 L612.7344,157.5544 L612.7344,160.2106 L617.75,160.2106 L617.75,162.3356 L612.7344,162.3356 L612.7344,165.445 L618.0156,165.445 L618.0156,167.57 L610.3594,167.57 Z " fill="#000000"/><text fill="#000000" font-family="sans-serif" font-size="14" lengthAdjust="spacing" textLength="64" x="628" y="166.502">LoopType</text><line style="stroke:#181818;stroke-width:0.5;" x1="600" x2="694" y1="177.07" y2="177.07"/><text fill="#000000" font-family="sans-serif" font-size="14" lengthAdjust="spacing" textLength="58" x="605" y="196.0359">Forever()</text><text fill="#000000" font-family="sans-serif" font-size="14" lengthAdjust="spacing" textLength="57" x="605" y="215.1039">Times(n)</text></g><!--class MetaContextImpl--><g id="elem_MetaContextImpl"><rect fill="#F1F1F1" height="32" id="MetaContextImpl" rx="3.5" ry="3.5" style="stroke:#181818;stroke-width:0.5;" width="148" x="467" y="449.34"/><ellipse cx="482" cy="465.34" fill="#ADD1B2" rx="11" ry="11" style="stroke:#181818;stroke-width:1.0;"/><path d="M481.4688,472.2619 Q479.7188,472.2619 478.5781,471.5275 Q477.4531,470.7775 476.8906,469.4338 Q476.3438,468.0744 476.3438,466.2775 Q476.3438,464.2463 477,462.7931 Q477.6563,461.34 478.9375,460.5588 Q480.2188,459.7775 482.0938,459.7775 Q482.9844,459.7775 483.6563,459.965 Q484.3281,460.1369 485.0156,460.4806 L484.2031,462.4963 Q483.5781,462.1838 483.0313,462.0588 Q482.5,461.9338 482.0156,461.9338 Q480.8438,461.9338 480.1406,462.465 Q479.4375,462.9963 479.1406,463.9494 Q478.8438,464.9025 478.8438,466.1681 Q478.8438,468.1838 479.5625,469.1525 Q480.2813,470.1056 481.875,470.1056 Q482.4688,470.1056 483.0938,469.9494 Q483.7188,469.7931 484.5469,469.4181 L484.5469,471.6369 Q483.8125,471.9494 483.0156,472.1056 Q482.2344,472.2619 481.4688,472.2619 Z " fill="#000000"/><text fill="#000000" font-family="sans-serif" font-size="14" lengthAdjust="spacing" textLength="116" x="496" y="470.772">MetaContextImpl</text></g><!--reverse link World to MetaContext--><g id="link_World_MetaContext"><path codeLine="35" d="M511.9179,225.6047 C517.9379,250.1547 523.8,274.09 530.61,301.88 " fill="none" id="World-backto-MetaContext" style="stroke:#454645;stroke-width:1.0;"/><polygon fill="#454645" points="509.06,213.95,506.604,220.73,511.9179,225.6047,514.3739,218.8247,509.06,213.95" style="stroke:#454645;stroke-width:1.0;"/><text fill="#000000" font-family="sans-serif" font-size="13" lengthAdjust="spacing" textLength="7" x="502.7609" y="235.46">1</text><text fill="#000000" font-family="sans-serif" font-size="13" lengthAdjust="spacing" textLength="7" x="521.3095" y="290.2415">1</text></g><!--link World to LoopType--><g id="link_World_LoopType"><path codeLine="36" d="M564.87,184.14 C576.1,184.14 581.33,184.14 592.56,184.14 " fill="none" id="World-to-LoopType" style="stroke:#454645;stroke-width:1.0;"/><polygon fill="#454645" points="598.56,184.14,589.56,180.14,593.56,184.14,589.56,188.14,598.56,184.14" style="stroke:#454645;stroke-width:1.0;"/></g><!--reverse link World to WorldImpl--><g id="link_World_WorldImpl"><path codeLine="38" d="M456.3526,225.9489 C424.1926,254.7089 388.48,286.63 356.29,315.4 " fill="none" id="World-backto-WorldImpl" style="stroke:#454645;stroke-width:1.0;stroke-dasharray:7.0,7.0;"/><polygon fill="none" points="469.77,213.95,452.353,221.4764,460.3522,230.4214,469.77,213.95" style="stroke:#454645;stroke-width:1.0;"/></g><!--reverse link Mutator to WorldImpl--><g id="link_Mutator_WorldImpl"><path codeLine="39" d="M324,218.39 C324,244.84 324,281.61 324,315.42 " fill="none" id="Mutator-backto-WorldImpl" style="stroke:#454645;stroke-width:1.0;stroke-dasharray:7.0,7.0;"/><polygon fill="none" points="324,200.39,318,218.39,330,218.39,324,200.39" style="stroke:#454645;stroke-width:1.0;"/></g><!--reverse link MetaContext to MetaContextImpl--><g id="link_MetaContext_MetaContextImpl"><path codeLine="41" d="M541,406.56 C541,427.61 541,433.74 541,449.01 " fill="none" id="MetaContext-backto-MetaContextImpl" style="stroke:#454645;stroke-width:1.0;stroke-dasharray:7.0,7.0;"/><polygon fill="none" points="541,388.56,535,406.56,547,406.56,541,388.56" style="stroke:#454645;stroke-width:1.0;"/></g><!--reverse link FramePacer to WorldImpl--><g id="link_FramePacer_WorldImpl"><path codeLine="43" d="M151.6687,219.0799 C162.6087,237.3799 175.48,255.53 194,272.2 C212.89,289.21 236.49,303.8 258.38,315.31 " fill="none" id="FramePacer-backto-WorldImpl" style="stroke:#454645;stroke-width:1.0;"/><polygon fill="#454645" points="148.59,213.93,149.7748,223.7073,151.1556,218.2216,156.6413,219.6024,148.59,213.93" style="stroke:#454645;stroke-width:1.0;"/><text fill="#000000" font-family="sans-serif" font-size="13" lengthAdjust="spacing" textLength="120" x="195" y="268.097">measures deltaTime</text></g><!--link WorldFactory to World--><g id="link_WorldFactory_World"><path codeLine="44" d="M502,66.3 C502,91.83 502,122.92 502,148.43 " fill="none" id="WorldFactory-to-World" style="stroke:#454645;stroke-width:1.0;"/><polygon fill="#454645" points="502,154.43,506,145.43,502,149.43,498,145.43,502,154.43" style="stroke:#454645;stroke-width:1.0;"/><text fill="#000000" font-family="sans-serif" font-size="13" lengthAdjust="spacing" textLength="43" x="503" y="110.967">creates</text></g><!--reverse link FramePacer to FramePacerImpl--><g id="link_FramePacer_FramePacerImpl"><path codeLine="45" d="M123.6575,231.596 C117.8675,260.356 112.59,286.63 106.81,315.4 " fill="none" id="FramePacer-backto-FramePacerImpl" style="stroke:#454645;stroke-width:1.0;stroke-dasharray:7.0,7.0;"/><polygon fill="none" points="127.21,213.95,117.7755,230.4118,129.5395,232.7801,127.21,213.95" style="stroke:#454645;stroke-width:1.0;"/></g><!--SRC=[ZLBBQiCm4BphAxOvoGK7UZLfBYs6G0k1flIis1iYqCD8cz3Gzjyhot8i1mhLHTAkPZIQqHqTKIESvTu9Gun9G-WEea7ui4wryCKW36LjnrK5Bs7UNJeis4z-z1L9FDcm_QG4Q56Hs4cD5TJA2eh5qYCzZmtUKkhrP1dNYGHPbzFNJcZSXfLBx5rOyqC5l837DRmRISLuJz3LAE5z1jheJYLWAGEd86cDtw9xmyQQjeADoN3nsV-5tBXLYoP8loHaur0Gyh_mGN84zJneJlfgReBNrk4P7I_YhhVCSnED7v9PF2pWlYpZd0MGkkNwoZS2Lj_BvVGybeo-BRCypDZB2iE9B8zL430vLe56uKyE_VG1sCoPCkWQr5J97p-Zw- -R9yVOKRO8g3kw17gzH-VPBm00]--></g></svg>